<?xml version="1.0" encoding="UTF-8" standalone="no"?>
<svg
   xml:space="preserve"
   inkscape:version="1.2.1 (9c6d41e, 2022-07-14)"
   sodipodi:docname="EVme-64.svg"
   id="svg4"
   version="1.1"
   height="64px"
   width="64px"
   viewBox="0 0 32 32"
   xmlns:inkscape="http://www.inkscape.org/namespaces/inkscape"
   xmlns:sodipodi="http://sodipodi.sourceforge.net/DTD/sodipodi-0.dtd"
   xmlns="http://www.w3.org/2000/svg"
   xmlns:svg="http://www.w3.org/2000/svg"><defs
     id="defs8" /><sodipodi:namedview
     id="namedview6"
     pagecolor="#ffffff"
     bordercolor="#000000"
     borderopacity="0.25"
     inkscape:showpageshadow="2"
     inkscape:pageopacity="0.0"
     inkscape:pagecheckerboard="0"
     inkscape:deskcolor="#d1d1d1"
     showgrid="false"
     inkscape:zoom="3.3380586"
     inkscape:cx="90.022387"
     inkscape:cy="52.875046"
     inkscape:window-width="1920"
     inkscape:window-height="1027"
     inkscape:window-x="0"
     inkscape:window-y="25"
     inkscape:window-maximized="1"
     inkscape:current-layer="svg4" /><g
     id="g837"
     transform="matrix(0.28291533,0,0,0.28291533,13.543527,-6.5134595)"><g
       style="fill:#4d4d4d;fill-opacity:1"
       id="g119"
       transform="matrix(0.7031475,0,0,0.7031475,6.3139858,146.94807)"><path
         d="m 41.376796,-101.30959 c 0.1347,-5.91367 -2.1916,-11.15531 -6.7218,-13.75781 -6.0116,-3.5433 -14.2026,-1.23404 -20.1285,5.0095 -1.0909,-2.0731 -2.7461,-3.7968 -4.7750998,-4.97284 -6.9666,-4.01982 -16.7125,-0.41542 -22.6384702,8.03965 h -0.08571 l -7.774714,13.440099 v 3.7388 c 0.02261,3.2754 1.341504,6.4091 3.669284,8.7183 2.32777,2.3092 5.47577,3.6068 8.7580102,3.6099 v -23.556799 c -0.0016,-0.8156 0.1582,-1.6234 0.4702,-2.3772 0.312,-0.7538 0.7701,-1.4387 1.3479,-2.0153 0.5779,-0.5767 1.2642,-1.0339 2.0196,-1.3452 0.7553,-0.3114 1.5648,-0.47082 2.3821,-0.46921 0.8203,-0.006 1.63379998,0.14941 2.39339998,0.45861 0.75960002,0.3092 1.45020002,0.7655 2.03200002,1.3427 0.5818,0.5772 1.0432,1.2637 1.3575,2.0199 0.3143,0.7562 0.4752,1.567 0.4736,2.3857 v 6.573399 10.7765 c -0.0034,1.6304 0.6374,3.1963 1.7834,4.3582 1.146,1.162 2.7049,1.8262 4.3383998,1.8487 0.8173,0.0016 1.6268,-0.1578 2.3821,-0.4692 0.7554,-0.3113 1.4417,-0.7685 2.0196,-1.3451 0.5778,-0.5767 1.0359,-1.2616 1.3479,-2.0154 0.312,-0.7538 0.4718,-1.5616 0.4702,-2.3772 v -17.349899 c -0.0016,-0.8145 0.1578,-1.6214 0.469,-2.3744 0.3112,-0.753 0.7682,-1.4373 1.3448,-2.0138 0.5766,-0.5765 1.2614,-1.0339 2.0154,-1.346 0.7539,-0.3121 1.5621,-0.47271 2.3783,-0.47271 1.6496,0 3.2316,0.65391 4.3981,1.81791 1.1664,1.1641 1.8217,2.7428 1.8217,4.389 v 6.573399 16.9834 c 1.634,0.0032 3.2527,-0.3152 4.7632,-0.937 1.5106,-0.6218 2.8835,-1.5348 4.0401,-2.6867 1.1565,-1.1519 2.0741,-2.5201 2.7002,-4.0263 0.626,-1.5062 0.9483,-3.1209 0.9483,-4.7515 z"
         fill="#333c4d"
         id="path110"
         style="fill:#4d4d4d;fill-opacity:1" /></g><g
       style="fill:#4d4d4d;fill-opacity:1"
       id="g130"
       transform="matrix(0.7031475,0,0,0.7031475,94.770739,120.00064)"><path
         d="m -69.168685,-63.140298 c 0.0032,1.8417 0.7386,3.6069 2.0448,4.9081 1.3061,1.3011 3.0763,2.0319 4.9218,2.0319 h 11.3988 c 1.8456,0 3.6157,-0.7308 4.9219,-2.0319 1.3061,-1.3012 2.0415,-3.0664 2.0448,-4.9081 0.038,-2.2877 -0.3352,-4.5637 -1.102,-6.72 l -0.1101,-0.3055 c -2.3018,-5.86477 -7.7748,-9.432511 -15.525,-9.432511 -5.7805,0.02653 -11.3751,2.041471 -15.84028,5.705041 -4.46518,3.66357 -7.52783,8.75167 -8.671493,14.40627 -2.265077,12.3527 5.534123,20.2579 17.777773,20.209 6.1218,0 12.7089,-1.7472 17.3248,-5.1805 0.0495,-0.0284 0.0869,-0.074 0.105,-0.128 0.018,-0.0541 0.0155,-0.1129 -0.0071,-0.1653 -0.8273,-1.5764 -2.1811,-2.8144 -3.8269,-3.4994 -1.6457,-0.6851 -3.4798,-0.7741 -5.1844,-0.2516 -1.86,0.6029 -3.7992,0.9282 -5.7545,0.9653 -5.1179,0 -8.2645,-2.2238 -9.4399,-5.3517 -0.6467,-1.6315 -0.9542,-3.3773 -0.9037,-5.1312 0.0505,-1.7539 0.458,-3.4792 1.1976,-5.071 0.1591,-0.3788 0.3306,-0.7576 0.5265,-1.1241 v -0.0733 l 0.2571,-0.4887 0.3305,-0.5499 c 1.4954,-2.4589 3.6612,-4.4422 6.2443,-5.71812 l 0.2571,-0.12218 c 0.2286,-0.10589 0.4612,-0.20364 0.6979,-0.29324 l 0.4163,-0.14662 0.4408,-0.1344 c 0.2571,-0.07331 0.5142,-0.14662 0.7836,-0.19549 0.4275,-0.09494 0.8612,-0.16026 1.2978,-0.19549 h 0.2571 c 0.4077,-0.0277 0.8167,-0.0277 1.2244,0 0.3428,0 0.6734,0.08552 1.0039,0.14662 0.9141,0.19081 1.7881,0.53805 2.5835,1.02633 0.1353,0.08254 0.2661,0.17227 0.3918,0.2688 0.1234,0.0827 0.242,0.17245 0.355,0.26881 l 0.3306,0.28102 0.0612,0.06109 0.3061,0.29327 v 0.0611 l 0.2939,0.3176 c 0.0882,0.0964 0.17,0.1984 0.2448,0.3055 v 0.0733 l 0.2204,0.3299 0.0735,0.11 0.2081,0.3298 0.0735,0.1345 0.1714,0.3176 0.0734,0.1589 0.1225,0.2565 c 0,0.0734 0,0.1589 0.0979,0.2322 0.098,0.0733 0,0.1588 0.098,0.2321 0.0273,0.0915 0.0601,0.1812 0.0979,0.2688 l 0.0735,0.2322 0.0735,0.2199 c 0,0.0978 0,0.1955 0.0857,0.2933 -0.007,0.0813 -0.007,0.163 0,0.2443 v 0.1589 c 0,0.1344 0.0612,0.2688 0.0857,0.4032 -0.0058,0.0446 -0.0058,0.0898 0,0.1344 0,0.1466 0,0.2932 0,0.452 v 0.11 c 0,0.1588 0,0.3177 0,0.4887 v 0.0856 c 0,0.1832 0,0.3665 0,0.5498 h -15.2311 z"
         fill="#333c4d"
         id="path121"
         style="fill:#4d4d4d;fill-opacity:1" /></g><g
       style="fill:#4d4d4d;fill-opacity:1"
       id="g141"
       transform="matrix(0.7031475,0,0,0.7031475,-7.9347964,131.1549)"><path
         d="m -12.835642,-46.524717 28.0441,-48.4731 c 1.8865,-3.26094 0.767,-7.430643 -2.5007,-9.313323 -3.2676996,-1.88268 -7.4460996,-0.76542 -9.3325996,2.49549 l -28.0441304,48.473133 c -1.886588,3.2609 -0.766994,7.4306 2.50068,9.3133 3.26768,1.8827 7.44605,0.7654 9.33265,-2.4955 z"
         fill="#333c4d"
         id="path132"
         style="fill:#4d4d4d;fill-opacity:1" /></g><g
       style="fill:#4d4d4d;fill-opacity:1"
       id="g152"
       transform="matrix(0.7031475,0,0,0.7031475,-47.248971,57.356839)"><path
         d="m 37.0126,0 -7.187,12.4749 H 6.20756 c -1.60025,0.0709 -3.11139,0.7551 -4.21864,1.9103 -1.107256,1.1551 -1.725248,2.6919 -1.725248,4.2904 0,1.5985 0.617992,3.1354 1.725248,4.2905 1.10725,1.1551 2.61839,1.8394 4.21864,1.9103 H 23.6058 c 0.8392,-0.0372 1.6772,0.0957 2.4636,0.3905 0.7863,0.2949 1.5047,0.7456 2.1117,1.3251 0.607,0.5794 1.0901,1.2756 1.4201,2.0465 0.3301,0.7708 0.5002,1.6004 0.5002,2.4387 0,0.8383 -0.1701,1.6679 -0.5002,2.4387 -0.33,0.7709 -0.8131,1.4671 -1.4201,2.0465 -0.607,0.5795 -1.3254,1.0302 -2.1117,1.3251 -0.7864,0.2948 -1.6244,0.4277 -2.4636,0.3905 H 6.20756 c -1.60025,0.0709 -3.11139,0.7551 -4.21864,1.9103 -1.107256,1.1551 -1.725248,2.6919 -1.725248,4.2904 0,1.5986 0.617992,3.1354 1.725248,4.2905 1.10725,1.1551 2.61839,1.8394 4.21864,1.9103 H 29.8256 v 5.5227 c -0.0017,0.8958 0.174,1.7831 0.5167,2.611 0.3428,0.8279 0.846,1.5801 1.4807,2.2135 0.6347,0.6334 1.3885,1.1355 2.2181,1.4776 0.8296,0.3421 1.7188,0.5173 2.6164,0.5157 1.812,0 3.5497,-0.7183 4.8309,-1.9969 1.2813,-1.2786 2.0011,-3.0127 2.0011,-4.8209 V 6.85445 C 43.4983,5.10056 42.8307,3.4105 41.6249,2.13443 40.4191,0.858365 38.7676,0.0941058 37.0126,0 Z"
         fill="#333c4d"
         id="path143"
         style="fill:#4d4d4d;fill-opacity:1" /></g></g></svg>
