<?xml version="1.0" encoding="UTF-8" standalone="no"?>
<svg
   xml:space="preserve"
   inkscape:version="1.2.1 (9c6d41e, 2022-07-14)"
   sodipodi:docname="X10-64.svg"
   id="svg4"
   version="1.1"
   height="64px"
   width="64px"
   viewBox="0 0 32 32"
   xmlns:inkscape="http://www.inkscape.org/namespaces/inkscape"
   xmlns:sodipodi="http://sodipodi.sourceforge.net/DTD/sodipodi-0.dtd"
   xmlns="http://www.w3.org/2000/svg"
   xmlns:svg="http://www.w3.org/2000/svg"><defs
     id="defs8" /><sodipodi:namedview
     id="namedview6"
     pagecolor="#ffffff"
     bordercolor="#000000"
     borderopacity="0.25"
     inkscape:showpageshadow="2"
     inkscape:pageopacity="0.0"
     inkscape:pagecheckerboard="0"
     inkscape:deskcolor="#d1d1d1"
     showgrid="false"
     inkscape:zoom="6.9861154"
     inkscape:cx="15.244523"
     inkscape:cy="22.115295"
     inkscape:window-width="1920"
     inkscape:window-height="1027"
     inkscape:window-x="0"
     inkscape:window-y="25"
     inkscape:window-maximized="1"
     inkscape:current-layer="svg4" /><path
     style="fill:#4d4d4d;stroke-width:0.0364481;fill-opacity:1"
     d="M 3.5746445,22.491501 C 2.862212,22.310323 3.004707,21.22422 3.742173,21.214589 c 0.8251912,-0.01078 0.9242356,1.19277 0.1058322,1.286029 -0.090209,0.01028 -0.2132214,0.0062 -0.2733607,-0.0091 z m 10.1894065,0.0076 c -0.241242,-0.04991 -0.475988,-0.360653 -0.475988,-0.630077 0,-0.734858 0.986455,-0.912712 1.278853,-0.230573 0.204267,0.476534 -0.259026,0.973171 -0.802865,0.86065 z m 4.855427,-0.441945 c -0.03484,-0.02213 -0.04688,-1.131046 -0.05467,-5.035358 -0.0079,-3.966052 -0.01946,-5.01013 -0.05555,-5.022156 -0.02506,-0.0084 -0.04556,-0.03216 -0.04556,-0.05291 0,-0.02075 -0.05331,-0.08435 -0.118457,-0.141335 -0.215945,-0.188884 -0.528179,-0.298802 -1.011435,-0.35606 l -0.200464,-0.02375 -0.0098,-0.911202 c -0.01092,-1.0183996 -0.01493,-1.0019586 0.244539,-1.0026856 0.182862,-5.12e-4 0.918789,0.110263 0.994862,0.149751 0.03481,0.01807 0.104738,0.03285 0.155399,0.03285 0.05066,0 0.120589,0.01399 0.155399,0.03109 0.05975,0.02935 0.108522,0.05112 0.464218,0.207273 0.08019,0.0352 0.153994,0.07391 0.164017,0.08601 0.01002,0.0121 0.06555,0.04644 0.123383,0.0763 0.330681,0.170743 0.765186,0.743925 0.911979,1.203045 0.03525,0.110256 0.0831,0.24967 0.106321,0.309809 0.05776,0.149553 0.0815,10.299713 0.02435,10.406511 -0.04071,0.07607 -1.734452,0.115303 -1.848551,0.04282 z m 5.147414,0.0046 c -0.08019,-0.0081 -0.203198,-0.03967 -0.273361,-0.07022 -0.07016,-0.03055 -0.168572,-0.07236 -0.218688,-0.09291 -0.428851,-0.175807 -0.93882,-0.591383 -1.093639,-0.891211 -0.0299,-0.0579 -0.06259,-0.113477 -0.07264,-0.1235 -0.05154,-0.05138 -0.14585,-0.306714 -0.14585,-0.394876 0,-0.05545 -0.01653,-0.117349 -0.03674,-0.137554 -0.04993,-0.04993 -0.02737,-8.897537 0.02328,-9.129312 0.145356,-0.665226 0.959353,-1.4112836 1.690071,-1.5490106 0.201404,-0.03796 5.253082,-0.03894 5.430766,-0.001 0.695051,0.148207 1.567269,0.9431796 1.567269,1.4284706 0,0.04611 0.0164,0.09397 0.03645,0.106359 0.02399,0.01483 0.03645,1.609453 0.03645,4.665357 0,3.055904 -0.01246,4.65053 -0.03645,4.665356 -0.02005,0.01239 -0.03645,0.04885 -0.03645,0.08103 0,0.08025 -0.11654,0.338129 -0.152807,0.338129 -0.01619,-1e-6 -0.02943,0.03085 -0.02943,0.06855 0,0.15303 -0.789034,0.842652 -0.964123,0.842652 -0.03103,0 -0.05642,0.0164 -0.05642,0.03645 0,0.02005 -0.0287,0.03655 -0.06378,0.03667 -0.03508,1.09e-4 -0.112989,0.02876 -0.173128,0.06365 -0.103945,0.06029 -4.898062,0.110586 -5.430767,0.05698 z m 4.534585,-1.823542 c 0.227686,-0.06991 0.425783,-0.242615 0.51356,-0.447742 0.09003,-0.2104 0.09988,-7.489244 0.01045,-7.72488 -0.196968,-0.51898 -0.164679,-0.51239 -2.510698,-0.51239 h -1.980992 l -0.155883,0.08655 c -0.08573,0.0476 -0.205087,0.158313 -0.265227,0.246024 l -0.109344,0.159476 v 3.827051 c 0,4.254899 -0.01723,3.958929 0.244143,4.193075 0.255339,0.228736 0.264916,0.229728 2.249348,0.232685 1.602956,0.0024 1.823372,-0.0042 2.004646,-0.05985 z m -26.4081717,0.70076 c -0.4903511,-0.386559 -0.233306,-1.18495 0.3814993,-1.18495 0.6578839,0 0.9338116,0.844721 0.3899138,1.193675 -0.1910245,0.122558 -0.6109048,0.117808 -0.7714131,-0.0087 z m 1.5070662,0.02966 C 2.844889,20.676347 3.1230033,19.75154 3.7652727,19.755238 c 0.6666351,0.0038 0.8941966,0.902964 0.3110277,1.228912 -0.1098152,0.06138 -0.5489514,0.0513 -0.6759289,-0.01552 z m 1.4225533,-0.05031 c -0.4912606,-0.404938 -0.2189182,-1.164296 0.4175735,-1.164296 0.5954281,0 0.8664015,0.726952 0.4245667,1.139003 -0.2068163,0.192875 -0.6236462,0.205394 -0.8421402,0.02529 z m 7.3141882,0.06202 c -0.427735,-0.23845 -0.416199,-0.921245 0.0194,-1.148292 0.475682,-0.247939 0.949309,0.04829 0.949309,0.593738 v 0.277805 l -0.163057,0.163057 -0.163058,0.163058 -0.283431,-0.0036 c -0.155888,-0.002 -0.317511,-0.02257 -0.359164,-0.04579 z m 1.379917,-0.08732 c -0.584742,-0.56432 0.130977,-1.504007 0.784797,-1.030382 0.394052,0.285449 0.429279,0.679642 0.09045,1.012158 l -0.157844,0.154905 h -0.287889 c -0.283194,0 -0.290197,-0.0022 -0.429515,-0.136681 z m 1.51342,0.06104 c -0.500937,-0.373919 -0.246392,-1.200042 0.369756,-1.200042 0.626745,0 0.916251,0.809289 0.423856,1.184856 -0.161152,0.122917 -0.637085,0.132024 -0.793612,0.01519 z M 3.392404,19.540082 c -0.1465695,-0.09095 -0.2733608,-0.244447 -0.2733608,-0.330929 0,-0.03876 -0.016402,-0.0806 -0.036448,-0.09299 -0.020046,-0.01239 -0.036448,-0.0862 -0.036448,-0.164016 0,-0.07782 0.016402,-0.151627 0.036448,-0.164017 0.020047,-0.01239 0.036448,-0.05169 0.036448,-0.08734 0,-0.275255 0.7102423,-0.50248 0.9517043,-0.304476 0.4479403,0.367321 0.4323489,0.820929 -0.0395,1.149203 -0.1266933,0.08814 -0.4930729,0.08503 -0.6388437,-0.0054 z m 1.4358338,-0.02235 C 4.5524744,19.336905 4.4461039,18.906963 4.6104484,18.637444 4.9740947,18.041077 5.9120975,18.329178 5.841265,19.01548 5.789942,19.512756 5.237979,19.786416 4.8282378,19.517734 Z m 1.4340888,-0.03806 C 5.7465415,19.038179 5.9957193,18.332525 6.6674024,18.332525 h 0.2750009 l 0.1620544,0.154905 c 0.5886525,0.56268 -0.2245651,1.520855 -0.8421311,0.992242 z m 4.3558254,0.02695 c -0.550665,-0.398126 -0.295974,-1.174102 0.385364,-1.174102 0.509146,0 0.790846,0.454617 0.57122,0.921853 -0.16162,0.343832 -0.651308,0.472961 -0.956584,0.252249 z m 1.392492,-0.07892 -0.180505,-0.180505 1.46e-4,-0.265984 c 2.55e-4,-0.462429 0.186125,-0.648317 0.648553,-0.648553 l 0.265985,-1.46e-4 0.180505,0.180505 0.180504,0.180504 v 0.236565 c -9e-6,0.436768 -0.24036,0.678119 -0.67531,0.678119 h -0.239373 z m 1.55078,0.07749 c -0.256035,-0.176665 -0.368298,-0.500836 -0.259039,-0.748003 0.02792,-0.06317 0.05994,-0.142855 0.07115,-0.177081 0.09088,-0.277414 0.750208,-0.345964 0.997359,-0.103695 0.575083,0.563723 -0.149272,1.48432 -0.809475,1.028779 z M 4.942172,18.104725 C 4.2231094,17.73735 4.5755876,16.698676 5.3596887,16.874397 c 0.6030505,0.135146 0.686992,0.948543 0.1269294,1.229951 -0.205915,0.103464 -0.3424893,0.103558 -0.5444461,3.77e-4 z m 1.4874798,0.01619 C 5.9538586,17.895546 5.8638537,17.335696 6.2510386,17.009901 c 0.6370865,-0.536073 1.4918065,0.391616 0.889393,0.965322 -0.2139634,0.203767 -0.4751451,0.257302 -0.7107798,0.14569 z m 1.5734367,0.04396 C 7.782821,18.084635 7.6021594,17.953389 7.6021594,17.873612 c 0,-0.02491 -0.020152,-0.052 -0.044783,-0.06021 -0.09371,-0.03124 -0.052285,-0.55397 0.055054,-0.694698 0.2808067,-0.368156 0.8558429,-0.341496 1.1037232,0.05117 0.1066795,0.168991 0.1271608,0.538714 0.034121,0.615931 -0.03007,0.02495 -0.054672,0.06511 -0.054672,0.08923 0,0.155554 -0.4938043,0.362225 -0.6925139,0.289838 z m 1.312392,-0.0362 C 9.0179535,17.999648 8.7410597,17.473713 8.914291,17.366651 c 0.020046,-0.01239 0.036448,-0.0569 0.036448,-0.09891 0,-0.363544 0.7600795,-0.53865 1.055554,-0.243177 0.51939,0.519391 -0.026661,1.392128 -0.6908125,1.104113 z m 1.5305605,0.03123 c -0.614133,-0.236748 -0.60771,-1.123887 0.0093,-1.279242 0.817513,-0.205852 1.170654,0.887023 0.404383,1.251451 -0.114649,0.05453 -0.310212,0.06766 -0.413645,0.02779 z m 1.421476,-0.03128 c -0.450403,-0.195092 -0.574846,-0.718694 -0.255137,-1.073499 0.274937,-0.305118 0.856566,-0.242895 1.038146,0.111061 0.137649,0.26832 0.140325,0.28185 0.09157,0.462969 -0.116388,0.432394 -0.510203,0.657299 -0.874582,0.499469 z M 6.453452,16.6789 C 6.0009999,16.509291 5.8354818,15.984663 6.1269802,15.644113 6.5596636,15.13862 7.2708338,15.38499 7.2731461,16.041179 l 9.804e-4,0.278245 -0.1550906,0.153473 C 6.8934137,16.696166 6.6776527,16.762945 6.453452,16.6789 Z m 1.4467672,-0.01762 c -0.6949985,-0.264863 -0.5314956,-1.28105 0.2061191,-1.28105 0.6688055,0 0.9318602,0.937577 0.3425732,1.220994 -0.074808,0.03598 -0.1644943,0.0794 -0.1993037,0.0965 -0.086181,0.04233 -0.1639844,0.03421 -0.3493886,-0.03644 z m 1.4910353,0.01685 C 8.691241,16.450651 8.832235,15.380235 9.5622115,15.380235 c 0.5906165,0 0.9063295,0.733864 0.4840135,1.125072 -0.2015085,0.186665 -0.4282575,0.246496 -0.6549705,0.172823 z m 1.4187875,0 c -0.310686,-0.09883 -0.529109,-0.49706 -0.438601,-0.799669 0.18609,-0.622185 0.97615,-0.677179 1.249122,-0.08695 0.229398,0.496014 -0.28151,1.054889 -0.810521,0.886617 z M 6.3744037,15.231019 c -0.5371396,-0.247101 -0.5094919,-1.028342 0.043192,-1.220483 0.7877076,-0.273847 1.2364274,0.882613 0.4764036,1.227808 -0.1856469,0.08432 -0.3246439,0.08236 -0.5195961,-0.0073 z m 1.4828924,0.0102 C 7.3627559,15.002984 7.3006906,14.397629 7.7392473,14.089825 8.23441,13.742291 8.967343,14.26836 8.7467533,14.81297 8.5809422,15.222337 8.1994209,15.406029 7.8572961,15.241219 Z m 1.4114474,-0.03662 c -0.6729484,-0.385415 -0.269833,-1.408851 0.475983,-1.208433 0.6158895,0.165503 0.6597245,1.009326 0.06533,1.257678 -0.186456,0.07791 -0.344392,0.06354 -0.541318,-0.04925 z m 1.4592545,0.02404 c -0.696651,-0.377369 -0.324026,-1.418181 0.441943,-1.234428 0.1843,0.04421 0.404158,0.204323 0.406221,0.295827 6.38e-4,0.02828 0.02524,0.08326 0.05467,0.122172 0.316716,0.418736 -0.415181,1.080586 -0.902836,0.816429 z m -5.7553747,-1.44525 c -0.6904815,-0.179793 -0.5068782,-1.269875 0.2155738,-1.279895 0.6525689,-0.0091 0.9054174,0.860819 0.3550409,1.22144 -0.09639,0.06316 -0.4237616,0.09669 -0.5706147,0.05846 z m 1.4397018,-0.0014 c -0.3513983,-0.106552 -0.5401904,-0.634322 -0.3429365,-0.95868 0.1867586,-0.3071 0.6254854,-0.421514 0.9002859,-0.234782 0.6586754,0.447582 0.2027141,1.423942 -0.5573494,1.193465 z m 1.4782689,-0.0039 c -0.3318865,-0.10054 -0.5188631,-0.472008 -0.4070462,-0.808645 0.1644786,-0.495181 0.7596426,-0.635078 1.1079913,-0.26044 0.4701224,0.505601 -0.032207,1.271785 -0.7009451,1.069124 z m 1.4683725,0.01097 c -0.3723242,-0.0805 -0.557244,-0.693291 -0.30844,-1.022075 0.388561,-0.513468 1.1758965,-0.245157 1.1758965,0.400725 0,0.451642 -0.3832045,0.726145 -0.8674565,0.621391 z m 1.4253515,5.06e-4 c -0.136279,-0.03004 -0.353311,-0.273934 -0.405644,-0.455844 -0.152138,-0.528834 0.411105,-1.022003 0.890032,-0.779303 0.766704,0.388534 0.361551,1.421638 -0.484388,1.235147 z m 1.459703,-0.0076 c -0.346413,-0.105044 -0.541115,-0.669077 -0.333365,-0.965727 0.407246,-0.581511 1.195167,-0.346336 1.195167,0.356729 v 0.278206 l -0.162326,0.157763 c -0.196292,0.190774 -0.441182,0.251353 -0.699476,0.17303 z m -8.5964804,-1.45555 c -0.7852046,-0.07466 -0.6822209,-1.28351 0.1093443,-1.28351 0.3986661,0 0.6378418,0.248381 0.6378418,0.66239 0,0.426655 -0.2866195,0.664916 -0.7471861,0.62112 z m 7.2408484,-9.65e-4 c -0.130868,-0.0094 -0.185828,-0.03908 -0.318921,-0.17217 l -0.160804,-0.160806 v -0.296029 c 0,-0.332945 0.0515,-0.443523 0.269203,-0.578074 0.15303,-0.09458 0.569567,-0.108069 0.641999,-0.02079 0.02496,0.03007 0.05977,0.05467 0.07736,0.05467 0.126835,0 0.287433,0.3112 0.285911,0.554023 -0.0026,0.412386 -0.312501,0.653837 -0.794747,0.619175 z M 4.8111426,12.195821 C 4.5486827,11.971165 4.4969465,11.704726 4.6545091,11.389162 5.0040132,10.689183 6.0608349,11.113293 5.8579214,11.8721 5.7405272,12.311102 5.1567409,12.49164 4.8111426,12.195821 Z m 1.4443598,-0.0211 c -0.5500565,-0.550056 0.1101075,-1.450344 0.7755908,-1.057699 0.5925644,0.349621 0.3455097,1.201569 -0.3484406,1.201569 H 6.3993721 Z m 5.8776986,0.0598 c -0.551475,-0.377859 -0.29592,-1.19161 0.374221,-1.19161 0.609762,0 0.881416,0.728785 0.422294,1.132919 -0.202287,0.17806 -0.581516,0.206003 -0.796515,0.05869 z m 1.403865,-0.05869 c -0.32611,-0.287054 -0.299245,-0.771006 0.05716,-1.02973 0.404425,-0.29358 1.042414,0.03065 1.042414,0.529763 0,0.556881 -0.682414,0.867169 -1.099577,0.499967 z M 1.9838701,10.805742 C 1.5463253,10.518934 1.6414051,9.6214304 2.1093339,9.6214304 c 0.032246,0 0.1008493,-0.01924 0.1524526,-0.04275 0.071769,-0.0327 0.103873,-0.0327 0.1365732,0 0.023512,0.02351 0.085719,0.04275 0.1382389,0.04275 0.3430524,0 0.5659839,0.6348796 0.3455473,0.9840736 -0.1808318,0.286456 -0.6180566,0.383919 -0.8982758,0.200238 z m 1.5178782,0.02965 C 2.9472491,10.537219 3.0393174,9.7593444 3.6475406,9.6036074 4.1424078,9.4768964 4.5917345,9.9720314 4.4221142,10.457148 4.2952048,10.82011 3.8293551,11.011563 3.5017483,10.835395 Z m 1.4705401,0.0029 c -0.1403092,-0.07414 -0.322425,-0.294841 -0.322425,-0.390731 0,-0.04541 -0.016383,-0.09895 -0.036406,-0.118968 -0.079439,-0.07944 0.043949,-0.4154786 0.2045693,-0.5571296 0.16446,-0.145036 0.4726284,-0.252755 0.537502,-0.187881 0.020832,0.02083 0.075029,0.03788 0.1204383,0.03788 0.1017026,0 0.3179718,0.184762 0.3935094,0.33618 0.2646081,0.5304186 -0.3739138,1.1571746 -0.8971878,0.8806546 z m 7.0591076,-0.142437 -0.201257,-0.201257 v -0.237402 c 0,-0.4133146 0.444273,-0.8245746 0.727195,-0.6731596 0.03843,0.02057 0.104184,0.03739 0.146123,0.03739 0.04194,0 0.149627,0.07338 0.239309,0.163057 l 0.163057,0.163057 v 0.2778046 c 0,0.641535 -0.62827,0.916664 -1.074427,0.470507 z m 1.606179,0.128119 c -0.142458,-0.09105 -0.276615,-0.239378 -0.276615,-0.305824 0,-0.02976 -0.0164,-0.06425 -0.03645,-0.07664 -0.02005,-0.01239 -0.03645,-0.09336 -0.03645,-0.17994 0,-0.7768716 1.074955,-0.9206976 1.311154,-0.175429 0.159866,0.50442 -0.515777,1.022816 -0.961642,0.737832 z m 1.431677,-0.01791 c -0.386137,-0.253144 -0.407318,-0.8624466 -0.03839,-1.1044906 0.135509,-0.0889 0.412129,-0.153207 0.48691,-0.113186 0.03395,0.01817 0.08997,0.03304 0.124474,0.03304 0.335085,0 0.545205,0.6444436 0.32072,0.9836616 -0.196614,0.297104 -0.606483,0.389275 -0.893709,0.200975 z M 3.6839887,9.4507484 c -0.040093,-0.01025 -0.088478,-0.03344 -0.1075218,-0.05154 -0.019044,-0.0181 -0.05721,-0.03291 -0.084812,-0.03291 -0.1375773,0 -0.3726118,-0.362523 -0.3726118,-0.574725 0,-0.678713 0.9816446,-0.899205 1.2702101,-0.285308 0.2269313,0.482776 -0.2119909,1.070579 -0.7052645,0.944487 z m 10.0961243,-4e-5 c -0.665578,-0.150399 -0.740716,-1.088274 -0.102507,-1.279486 0.846328,-0.253566 1.243356,0.919722 0.42069,1.243212 -0.158026,0.06214 -0.188395,0.0656 -0.318183,0.03627 z"
     id="path725"
     sodipodi:nodetypes="cssccsssscccscsccsssssscscscccscscsccscsssssssssccccsssscsscsscsscssccccsccssssscssccccccssscsssssssscsssssssccssssssscssssssccscccccscccscsccssssssssssscsscsssssssssccsccssscssssscsscsscscssssssssscssccsssscscccssscssccsccssssscsscccssccssssssscssscsscsccsscscssssssssscsssssscssccsscsssscsscccscssssccccsssccscccssssccssssssscsssscccsscc" /></svg>
