<?xml version="1.0" encoding="UTF-8" standalone="no"?>
<svg
   xml:space="preserve"
   inkscape:version="1.2.1 (9c6d41e, 2022-07-14)"
   sodipodi:docname="EVme-64-2.svg"
   id="svg4"
   version="1.1"
   height="64px"
   width="64px"
   viewBox="0 0 32 32"
   xmlns:inkscape="http://www.inkscape.org/namespaces/inkscape"
   xmlns:sodipodi="http://sodipodi.sourceforge.net/DTD/sodipodi-0.dtd"
   xmlns="http://www.w3.org/2000/svg"
   xmlns:svg="http://www.w3.org/2000/svg"><defs
     id="defs8" /><sodipodi:namedview
     id="namedview6"
     pagecolor="#ffffff"
     bordercolor="#000000"
     borderopacity="0.25"
     inkscape:showpageshadow="2"
     inkscape:pageopacity="0.0"
     inkscape:pagecheckerboard="0"
     inkscape:deskcolor="#d1d1d1"
     showgrid="false"
     inkscape:zoom="3.3380586"
     inkscape:cx="90.022387"
     inkscape:cy="52.875046"
     inkscape:window-width="1920"
     inkscape:window-height="1027"
     inkscape:window-x="0"
     inkscape:window-y="25"
     inkscape:window-maximized="1"
     inkscape:current-layer="g837" /><g
     id="g837"
     transform="matrix(0.28291533,0,0,0.28291533,13.543527,-6.5134595)"><g
       style="fill:#4d4d4d;fill-opacity:1"
       id="g141"
       transform="matrix(1.2490195,0,0,1.2490195,35.148548,173.18131)"><path
         d="m -12.835642,-46.524717 28.0441,-48.4731 c 1.8865,-3.26094 0.767,-7.430643 -2.5007,-9.313323 -3.2676996,-1.88268 -7.4460996,-0.76542 -9.3325996,2.49549 l -28.0441304,48.473133 c -1.886588,3.2609 -0.766994,7.4306 2.50068,9.3133 3.26768,1.8827 7.44605,0.7654 9.33265,-2.4955 z"
         fill="#333c4d"
         id="path132"
         style="fill:#4d4d4d;fill-opacity:1" /></g><g
       style="fill:#4d4d4d;fill-opacity:1"
       id="g152"
       transform="matrix(1.2490195,0,0,1.2490195,-34.68626,42.091861)"><path
         d="m 37.0126,0 -7.187,12.4749 H 6.20756 c -1.60025,0.0709 -3.11139,0.7551 -4.21864,1.9103 -1.107256,1.1551 -1.725248,2.6919 -1.725248,4.2904 0,1.5985 0.617992,3.1354 1.725248,4.2905 1.10725,1.1551 2.61839,1.8394 4.21864,1.9103 H 23.6058 c 0.8392,-0.0372 1.6772,0.0957 2.4636,0.3905 0.7863,0.2949 1.5047,0.7456 2.1117,1.3251 0.607,0.5794 1.0901,1.2756 1.4201,2.0465 0.3301,0.7708 0.5002,1.6004 0.5002,2.4387 0,0.8383 -0.1701,1.6679 -0.5002,2.4387 -0.33,0.7709 -0.8131,1.4671 -1.4201,2.0465 -0.607,0.5795 -1.3254,1.0302 -2.1117,1.3251 -0.7864,0.2948 -1.6244,0.4277 -2.4636,0.3905 H 6.20756 c -1.60025,0.0709 -3.11139,0.7551 -4.21864,1.9103 -1.107256,1.1551 -1.725248,2.6919 -1.725248,4.2904 0,1.5986 0.617992,3.1354 1.725248,4.2905 1.10725,1.1551 2.61839,1.8394 4.21864,1.9103 H 29.8256 v 5.5227 c -0.0017,0.8958 0.174,1.7831 0.5167,2.611 0.3428,0.8279 0.846,1.5801 1.4807,2.2135 0.6347,0.6334 1.3885,1.1355 2.2181,1.4776 0.8296,0.3421 1.7188,0.5173 2.6164,0.5157 1.812,0 3.5497,-0.7183 4.8309,-1.9969 1.2813,-1.2786 2.0011,-3.0127 2.0011,-4.8209 V 6.85445 C 43.4983,5.10056 42.8307,3.4105 41.6249,2.13443 40.4191,0.858365 38.7676,0.0941058 37.0126,0 Z"
         fill="#333c4d"
         id="path143"
         style="fill:#4d4d4d;fill-opacity:1" /></g></g></svg>
