<svg xmlns="http://www.w3.org/2000/svg" xmlns:xlink="http://www.w3.org/1999/xlink" viewBox="0 0 395.23 232.58"><defs><style>.cls-1{fill:none;}.cls-2{fill:#e6ebf0;}.cls-3{clip-path:url(#clip-path);}.cls-4{fill:#c6d0db;}.cls-5{fill:#aab6c2;}.cls-6,.cls-7,.cls-8,.cls-9{fill:#fff;}.cls-6{opacity:0.35;}.cls-7{opacity:0.5;}.cls-8{opacity:0.6;}.cls-10{fill:#ff822e;}.cls-11{fill:#ff814c;}</style><clipPath id="clip-path" transform="translate(34.02 7.03)"><path class="cls-1" d="M98.12,9.23C128,15.11,143.21,48.92,191.28,79s37.49,147.55-38.43,128.39c-72.43-18.27-75.78-16.83-123.22-15.14C-29.74,194.36,3.66-9.38,98.12,9.23Z"/></clipPath></defs><g id="Слой_2" data-name="Слой 2"><g id="Layer_1" data-name="Layer 1"><path class="cls-2" d="M98.12,9.23C128,15.11,143.21,48.92,191.28,79s37.49,147.55-38.43,128.39c-72.43-18.27-75.78-16.83-123.22-15.14C-29.74,194.36,3.66-9.38,98.12,9.23Z" transform="translate(34.02 7.03)"/><path class="cls-2" d="M179.08,58.79c-14-11.15-25.68-30.6-19.05-49.35s20.34,16.15,31.36,27.77C207.34,54,208.39,82.12,179.08,58.79Z" transform="translate(34.02 7.03)"/><rect x="39.85" y="216.55" width="207.14" height="1.44"/><g class="cls-3"><polygon class="cls-4" points="82.08 77.21 82.08 69.45 94.94 69.45 94.94 32.4 98.49 32.4 98.49 69.45 112.34 69.45 112.34 77.21 119.76 77.21 119.76 232.58 66.25 232.58 66.25 77.21 82.08 77.21"/><rect class="cls-5" x="66.25" y="77.21" width="7.42" height="139.76"/><rect class="cls-4" x="93" y="114.22" width="53.51" height="118.36"/><rect class="cls-5" x="93" y="114.22" width="7.42" height="118.36"/><rect class="cls-5" x="131.37" y="119.26" width="7.68" height="3.19"/><rect class="cls-5" x="118.44" y="119.26" width="7.68" height="3.19"/><rect class="cls-5" x="131.37" y="130.86" width="7.68" height="3.19"/><rect class="cls-5" x="118.44" y="130.86" width="7.68" height="3.19"/><rect class="cls-5" x="105.51" y="130.86" width="7.68" height="3.19"/><rect class="cls-5" x="131.37" y="142.47" width="7.68" height="3.19"/><rect class="cls-5" x="105.51" y="142.47" width="7.68" height="3.19"/><rect class="cls-5" x="118.44" y="148.27" width="7.68" height="3.19"/><rect class="cls-5" x="131.37" y="154.07" width="7.68" height="3.19"/><rect class="cls-5" x="118.44" y="159.87" width="7.68" height="3.19"/><rect class="cls-5" x="131.37" y="165.67" width="7.68" height="3.19"/><rect class="cls-5" x="105.51" y="165.67" width="7.68" height="3.19"/><rect class="cls-5" x="131.37" y="176.39" width="7.68" height="3.19"/><rect class="cls-5" x="118.44" y="176.39" width="7.68" height="3.19"/><rect class="cls-5" x="131.37" y="188" width="7.68" height="3.19"/><rect class="cls-5" x="118.44" y="188" width="7.68" height="3.19"/><rect class="cls-5" x="105.51" y="188" width="7.68" height="3.19"/><rect class="cls-5" x="131.37" y="199.6" width="7.68" height="3.19"/><rect class="cls-5" x="105.51" y="199.6" width="7.68" height="3.19"/><rect class="cls-5" x="118.44" y="205.4" width="7.68" height="3.19"/><rect class="cls-5" x="105.51" y="205.4" width="7.68" height="3.19"/><rect class="cls-5" x="131.37" y="211.2" width="7.68" height="3.19"/><rect class="cls-5" x="118.44" y="217" width="7.68" height="3.19"/><rect class="cls-5" x="131.37" y="222.81" width="7.68" height="3.19"/><rect class="cls-5" x="105.51" y="222.81" width="7.68" height="3.19"/><rect class="cls-4" x="221.03" y="114.22" width="53.51" height="118.36"/><rect class="cls-5" x="221.03" y="114.22" width="7.42" height="118.36"/><rect class="cls-4" x="145.02" y="57.92" width="71.79" height="174.66"/><rect class="cls-5" x="145.02" y="57.92" width="7.42" height="174.66"/><rect class="cls-5" x="198.04" y="66.29" width="11.21" height="4.65"/><rect class="cls-5" x="179.16" y="66.29" width="11.21" height="4.65"/><rect class="cls-5" x="198.04" y="83.23" width="11.21" height="4.65"/><rect class="cls-5" x="179.16" y="83.23" width="11.21" height="4.65"/><rect class="cls-5" x="160.28" y="83.23" width="11.21" height="4.65"/><rect class="cls-5" x="198.04" y="100.17" width="11.21" height="4.65"/><rect class="cls-5" x="160.28" y="100.17" width="11.21" height="4.65"/><rect class="cls-5" x="179.16" y="108.65" width="11.21" height="4.65"/><rect class="cls-5" x="198.04" y="117.12" width="11.21" height="4.65"/><rect class="cls-5" x="179.16" y="125.59" width="11.21" height="4.65"/><rect class="cls-5" x="198.04" y="134.06" width="11.21" height="4.65"/><rect class="cls-5" x="160.28" y="134.06" width="11.21" height="4.65"/><rect class="cls-5" x="198.04" y="149.72" width="11.21" height="4.65"/><rect class="cls-5" x="179.16" y="149.72" width="11.21" height="4.65"/><rect class="cls-5" x="198.04" y="166.66" width="11.21" height="4.65"/><rect class="cls-5" x="179.16" y="166.66" width="11.21" height="4.65"/><rect class="cls-5" x="160.28" y="166.66" width="11.21" height="4.65"/><rect class="cls-5" x="198.04" y="183.61" width="11.21" height="4.65"/><rect class="cls-5" x="160.28" y="183.61" width="11.21" height="4.65"/><rect class="cls-5" x="179.16" y="192.08" width="11.21" height="4.65"/><rect class="cls-5" x="160.28" y="192.08" width="11.21" height="4.65"/><rect class="cls-5" x="198.04" y="200.55" width="11.21" height="4.65"/><rect class="cls-5" x="179.16" y="209.02" width="11.21" height="4.65"/><rect class="cls-5" x="198.04" y="217.49" width="11.21" height="4.65"/><rect class="cls-5" x="160.28" y="217.49" width="11.21" height="4.65"/><rect class="cls-4" x="257.89" y="70.94" width="70.36" height="161.64"/><rect class="cls-5" x="257.89" y="70.94" width="7.27" height="161.64"/><rect class="cls-5" x="309.86" y="78.68" width="10.99" height="4.31"/><rect class="cls-5" x="291.35" y="78.68" width="10.99" height="4.31"/><rect class="cls-5" x="309.86" y="94.36" width="10.99" height="4.31"/><rect class="cls-5" x="291.35" y="94.36" width="10.99" height="4.31"/><rect class="cls-5" x="272.85" y="94.36" width="10.99" height="4.31"/><rect class="cls-5" x="309.86" y="110.04" width="10.99" height="4.31"/><rect class="cls-5" x="272.85" y="110.04" width="10.99" height="4.31"/><rect class="cls-5" x="291.35" y="117.88" width="10.99" height="4.31"/><rect class="cls-5" x="309.86" y="125.72" width="10.99" height="4.31"/><rect class="cls-5" x="291.35" y="133.56" width="10.99" height="4.31"/><rect class="cls-5" x="309.86" y="141.4" width="10.99" height="4.31"/><rect class="cls-5" x="272.85" y="141.4" width="10.99" height="4.31"/><rect class="cls-5" x="309.86" y="155.89" width="10.99" height="4.31"/><rect class="cls-5" x="291.35" y="155.89" width="10.99" height="4.31"/><rect class="cls-5" x="309.86" y="171.58" width="10.99" height="4.31"/><rect class="cls-5" x="291.35" y="171.58" width="10.99" height="4.31"/><rect class="cls-5" x="272.85" y="171.58" width="10.99" height="4.31"/><rect class="cls-5" x="309.86" y="187.26" width="10.99" height="4.31"/><rect class="cls-5" x="272.85" y="187.26" width="10.99" height="4.31"/><rect class="cls-5" x="291.35" y="195.1" width="10.99" height="4.31"/><rect class="cls-5" x="272.85" y="195.1" width="10.99" height="4.31"/><rect class="cls-5" x="309.86" y="202.94" width="10.99" height="4.31"/><rect class="cls-5" x="291.35" y="210.78" width="10.99" height="4.31"/><rect class="cls-5" x="309.86" y="218.62" width="10.99" height="4.31"/><rect class="cls-5" x="272.85" y="218.62" width="10.99" height="4.31"/><rect class="cls-4" x="30.5" y="122.33" width="45.32" height="110.25"/><rect class="cls-5" x="30.5" y="122.33" width="4.68" height="110.25"/><rect class="cls-5" x="63.96" y="127.61" width="7.08" height="2.94"/><rect class="cls-5" x="52.05" y="127.61" width="7.08" height="2.94"/><rect class="cls-5" x="63.96" y="138.3" width="7.08" height="2.94"/><rect class="cls-5" x="52.05" y="138.3" width="7.08" height="2.94"/><rect class="cls-5" x="40.13" y="138.3" width="7.08" height="2.94"/><rect class="cls-5" x="63.96" y="149" width="7.08" height="2.94"/><rect class="cls-5" x="40.13" y="149" width="7.08" height="2.94"/><rect class="cls-5" x="52.05" y="154.35" width="7.08" height="2.94"/><rect class="cls-5" x="63.96" y="159.7" width="7.08" height="2.94"/><rect class="cls-5" x="52.05" y="165.04" width="7.08" height="2.94"/><rect class="cls-5" x="63.96" y="170.39" width="7.08" height="2.94"/><rect class="cls-5" x="40.13" y="170.39" width="7.08" height="2.94"/><rect class="cls-5" x="63.96" y="180.27" width="7.08" height="2.94"/><rect class="cls-5" x="52.05" y="180.27" width="7.08" height="2.94"/><rect class="cls-5" x="63.96" y="190.97" width="7.08" height="2.94"/><rect class="cls-5" x="52.05" y="190.97" width="7.08" height="2.94"/><rect class="cls-5" x="40.13" y="190.97" width="7.08" height="2.94"/><rect class="cls-5" x="63.96" y="201.66" width="7.08" height="2.94"/><rect class="cls-5" x="40.13" y="201.66" width="7.08" height="2.94"/><rect class="cls-5" x="52.05" y="207.01" width="7.08" height="2.94"/><rect class="cls-5" x="40.13" y="207.01" width="7.08" height="2.94"/><rect class="cls-5" x="63.96" y="212.36" width="7.08" height="2.94"/><rect class="cls-5" x="52.05" y="217.71" width="7.08" height="2.94"/><rect class="cls-5" x="63.96" y="223.06" width="7.08" height="2.94"/><rect class="cls-5" x="40.13" y="223.06" width="7.08" height="2.94"/><rect class="cls-6" x="2.1" y="4.33" width="192.05" height="218.97"/><polygon class="cls-7" points="68.22 219.35 53.31 219.35 133.22 6.84 148.12 6.84 68.22 219.35"/><polygon class="cls-7" points="41.9 219.35 34.45 219.35 114.35 6.84 121.8 6.84 41.9 219.35"/><polygon class="cls-7" points="130.89 219.35 123.44 219.35 191.94 29.66 191.94 44.94 130.89 219.35"/><rect class="cls-6" x="195.16" width="192.05" height="218.97"/><polygon class="cls-7" points="226.93 219.35 212.02 219.35 291.93 6.84 306.83 6.84 226.93 219.35"/><polygon class="cls-7" points="200.61 219.35 193.15 219.35 273.06 6.84 280.51 6.84 200.61 219.35"/><polygon class="cls-8" points="322.96 219.35 315.51 219.35 384.01 29.66 384.01 44.94 322.96 219.35"/><path class="cls-9" d="M361.21,36.8V34.29h-6.9V-5.21H-34v5h4.18V1.58H94V34.29H-34V36.8H94v64.3H-34v2.51H94v64.3H-34v2.51H94v41.9H-29.8v1.45H-34v5.8H354.31v-.47h0V170.42h6.9v-2.51h-6.9v-64.3h6.9V101.1h-6.9V36.8Zm-199,66.81h59.82v64.3H162.25Zm0-2.51V36.8h59.82v64.3Zm0-66.81V1.58h59.82V34.29Zm0,136.13h59.82v41.9h-59.8v1.45h0Zm64,41.9v-41.9h59.82v41.9Zm0-44.41v-64.3h59.82v64.3Zm0-66.81V36.8h59.82v64.3Zm0-66.81V1.58h59.82V34.29Zm64-32.71H350.1V34.29H290.29Zm-192.07,0H158V34.29H98.22Zm0,35.22H158v64.3H98.22Zm0,66.81H158v64.3H98.22Zm0,66.81H158v43.35h0v-1.45H98.22ZM350.1,213.77h0v-1.45H290.29v-41.9H350.1Zm0-45.86H290.29v-64.3H350.1Zm0-66.81H290.29V36.8H350.1Z" transform="translate(34.02 7.03)"/></g><path class="cls-10" d="M98.61,28.62a15.6,15.6,0,1,1,27.12,10.62c-3.1,3.41-5.35,7.79-5.38,12.39v.46L107.73,52v-.41c0-4.63-2.15-9.06-5.21-12.53A15.52,15.52,0,0,1,98.61,28.62Z" transform="translate(34.02 7.03)"/><path d="M110.16,40.18s-.79-3.44-1.34-6.84a41.7,41.7,0,0,1-.53-4.46,2.53,2.53,0,0,1-.88-.42c-2.41-1.68-.18-5.13-.08-5.28s.29-.14.48,0,.29.26.21.38c-.59.9-1.78,3.49-.18,4.6a1.65,1.65,0,0,0,.43.23c0-2.13.47-2.21.76-2.25a1.3,1.3,0,0,1,1.18.37,1.62,1.62,0,0,1-.72,2.29,1.48,1.48,0,0,1-.46.16,77.53,77.53,0,0,0,1.87,11.32c0,.15-.1.26-.3.24a.76.76,0,0,1-.16,0A.47.47,0,0,1,110.16,40.18Zm-.78-13.55c-.27.07-.38.67-.37,1.63.63-.37.86-1.3.59-1.6,0,0,0,0,0,0A.46.46,0,0,0,109.38,26.63Z" transform="translate(34.02 7.03)"/><path d="M117.8,40.5l-.15,0c-.2,0-.34-.1-.3-.25a76.52,76.52,0,0,0,2-11.29,1.72,1.72,0,0,1-.45-.16,1.64,1.64,0,0,1-.69-2.31,1.28,1.28,0,0,1,1.18-.35c.3.05.8.13.73,2.26a1.39,1.39,0,0,0,.44-.22c1.62-1.09.47-3.69-.11-4.6-.08-.12,0-.29.21-.38a.39.39,0,0,1,.49.05c.09.15,2.27,3.64-.16,5.28a2.79,2.79,0,0,1-.89.4,41.16,41.16,0,0,1-.61,4.46c-.6,3.38-1.43,6.78-1.44,6.81A.43.43,0,0,1,117.8,40.5Zm1.09-13.79,0,0c-.27.3-.06,1.23.56,1.61,0-1-.08-1.56-.34-1.63A.38.38,0,0,0,118.89,26.71Z" transform="translate(34.02 7.03)"/><path d="M110.17,39.78l.38-.31a5.65,5.65,0,0,1,7.16.06l.37.31L118,52.45l-7.91-.06Zm7.17.4-.11-.09a4.9,4.9,0,0,0-6.21,0l-.11.08-.09,11.53,6.44,0Z" transform="translate(34.02 7.03)"/><path d="M107.49,53l13.08.1a1,1,0,0,0,1-1h0a1,1,0,0,0-1-1L107.51,51a1,1,0,0,0-1,1h0A1,1,0,0,0,107.49,53Z" transform="translate(34.02 7.03)"/><path class="cls-5" d="M108.18,54.9l11.67.09a.93.93,0,0,0,.87-1h0a.92.92,0,0,0-.85-1L108.19,53a.92.92,0,0,0-.86,1h0A.91.91,0,0,0,108.18,54.9Z" transform="translate(34.02 7.03)"/><path d="M108.16,56.83l11.68.09a.92.92,0,0,0,.86-1h0a.91.91,0,0,0-.85-1l-11.67-.09a.92.92,0,0,0-.87,1h0A.92.92,0,0,0,108.16,56.83Z" transform="translate(34.02 7.03)"/><path class="cls-5" d="M108.15,58.76l11.67.09a.92.92,0,0,0,.87-1h0a.92.92,0,0,0-.85-1l-11.68-.08a.92.92,0,0,0-.87.95h0A.92.92,0,0,0,108.15,58.76Z" transform="translate(34.02 7.03)"/><path d="M108.13,60.69l11.68.09a.92.92,0,0,0,.86-1h0a.91.91,0,0,0-.85-1l-11.67-.08a.9.9,0,0,0-.87.95h0A.91.91,0,0,0,108.13,60.69Z" transform="translate(34.02 7.03)"/><path class="cls-5" d="M117,62.69l-6.17,0A1.92,1.92,0,0,1,109,60.7h0l10,.08h0A1.92,1.92,0,0,1,117,62.69Z" transform="translate(34.02 7.03)"/><path class="cls-10" d="M114.12,8.43a1.12,1.12,0,0,1-.85-1.09l0-6.24A1.11,1.11,0,0,1,114.44,0a1.12,1.12,0,0,1,1.1,1.12l-.05,6.24a1.1,1.1,0,0,1-1.12,1.1A1,1,0,0,1,114.12,8.43Z" transform="translate(34.02 7.03)"/><path class="cls-10" d="M103.55,10.43a1.15,1.15,0,0,1-.68-.49L99.52,4.53a1.11,1.11,0,0,1,1.89-1.17l3.35,5.41a1.11,1.11,0,0,1-1.21,1.66Z" transform="translate(34.02 7.03)"/><path class="cls-10" d="M96.4,18.62l-.19-.07L90.39,16a1.12,1.12,0,0,1-.56-1.47,1.11,1.11,0,0,1,1.47-.56l5.82,2.6a1.11,1.11,0,0,1-.72,2.1Z" transform="translate(34.02 7.03)"/><path class="cls-10" d="M88.56,31.92a1.11,1.11,0,0,1,.22-2.19l5.28-.19a1.11,1.11,0,0,1,1.15,1.07,1.1,1.1,0,0,1-1.07,1.15L88.86,32A1.53,1.53,0,0,1,88.56,31.92Z" transform="translate(34.02 7.03)"/><path class="cls-10" d="M125.43,10.6a1.36,1.36,0,0,1-.33-.14,1.12,1.12,0,0,1-.34-1.54l3.43-5.35a1.11,1.11,0,1,1,1.87,1.19l-3.43,5.36A1.11,1.11,0,0,1,125.43,10.6Z" transform="translate(34.02 7.03)"/><path class="cls-10" d="M132.46,18.89a1.08,1.08,0,0,1-.76-.64,1.12,1.12,0,0,1,.58-1.46l5.86-2.51a1.1,1.1,0,0,1,1.46.58,1.12,1.12,0,0,1-.58,1.46l-5.86,2.52A1.13,1.13,0,0,1,132.46,18.89Z" transform="translate(34.02 7.03)"/><path class="cls-10" d="M134.81,32.05a1.11,1.11,0,0,1,.32-2.19l5.28.27a1.11,1.11,0,0,1-.11,2.22L135,32.08Z" transform="translate(34.02 7.03)"/><path class="cls-5" d="M155.25,203.83H153a1.54,1.54,0,0,1-1.53-1.53V191.63h5.34V202.3A1.53,1.53,0,0,1,155.25,203.83Z" transform="translate(34.02 7.03)"/><path class="cls-5" d="M185.58,206.84a5.16,5.16,0,0,0-3.29-6.52l-24.16-7.95V178h-8v14.47l-23.83,7.84a5.17,5.17,0,0,0-3.3,6.52l31.32-10.29h0Z" transform="translate(34.02 7.03)"/><path class="cls-5" d="M158.82,193.25h-9.1V175.87a2.61,2.61,0,0,1,2.6-2.6h3.9a2.61,2.61,0,0,1,2.6,2.6Z" transform="translate(34.02 7.03)"/><path d="M130.62,205a5.09,5.09,0,1,0-5.09,5.1A5.09,5.09,0,0,0,130.62,205Z" transform="translate(34.02 7.03)"/><path class="cls-5" d="M129.51,205a4,4,0,1,0-4,4A4,4,0,0,0,129.51,205Z" transform="translate(34.02 7.03)"/><path d="M159.19,205a5.09,5.09,0,1,0-5.09,5.1A5.09,5.09,0,0,0,159.19,205Z" transform="translate(34.02 7.03)"/><path class="cls-5" d="M158.09,205a4,4,0,1,0-4,4A4,4,0,0,0,158.09,205Z" transform="translate(34.02 7.03)"/><path d="M188.62,205a5.1,5.1,0,1,0-5.09,5.1A5.09,5.09,0,0,0,188.62,205Z" transform="translate(34.02 7.03)"/><path class="cls-5" d="M187.51,205a4,4,0,1,0-4,4A4,4,0,0,0,187.51,205Z" transform="translate(34.02 7.03)"/><path class="cls-10" d="M186.66,166.43a4.05,4.05,0,0,1-4.06,4H148.84l-2.42-.76c-6.1-1.94-21.66-7-22.7-8.64-1.29-2-4.37-30.64-4.37-30.64h33.76a4.06,4.06,0,0,1,4.37,3.72l.78,17.9a11.26,11.26,0,0,0,11.17,10.31H182.6A4.06,4.06,0,0,1,186.66,166.43Z" transform="translate(34.02 7.03)"/><path d="M161.26,175.64H148c-1.95,0-3.54-2.81-3.54-6.26h20.38C164.79,172.83,163.21,175.64,161.26,175.64Z" transform="translate(34.02 7.03)"/><path class="cls-10" d="M186.66,166.43a4.05,4.05,0,0,1-4.06,4H146.42v-8.11H182.6A4.06,4.06,0,0,1,186.66,166.43Z" transform="translate(34.02 7.03)"/><path d="M148.84,170.48H135.66a19.4,19.4,0,0,1-19.24-17.78l-.79-17.9a4.05,4.05,0,1,1,8.08-.64l.79,17.9a11.25,11.25,0,0,0,11.16,10.31h13.18a4.06,4.06,0,0,1,0,8.11Z" transform="translate(34.02 7.03)"/><path class="cls-9" d="M191.58,195.45c-.58-.38-4.86,1.53-4.82,1.81.14.86,1,4.05,1.54,4.32s4.95-1.23,4.77-2.05S192.14,195.81,191.58,195.45Z" transform="translate(34.02 7.03)"/><path d="M188.48,201.83a.67.67,0,0,1-.28-.05c-.78-.37-1.61-4.14-1.66-4.48s.14-.32.32-.43c.74-.48,4.17-2.05,4.84-1.61h0c.74.47,1.58,4.19,1.59,4.22.08.36-.29.65-.41.75A10.94,10.94,0,0,1,188.48,201.83ZM187,197.31c.2,1.18,1,3.89,1.39,4.07a10,10,0,0,0,4.28-1.56c.19-.17.18-.24.18-.24-.26-1.2-1-3.68-1.39-4S187.52,196.85,187,197.31Z" transform="translate(34.02 7.03)"/><path d="M187.66,200.74s-1.06,3.6,1.17,5.41c0,0,10.82-3.07,13.87-4.65,0,0-1.23-3.95-4.1-3.36a43.06,43.06,0,0,0-5.6,1.61S190.39,202.24,187.66,200.74Z" transform="translate(34.02 7.03)"/><path d="M152,156c2.82,5.56,12.87,7.82,20.33,9.79,4.47,1.18,8,2.26,8.49,3.89,1.86,6.37,3.17,23.1,4.94,29,.63.72,1.95.74,3.33.48a22.09,22.09,0,0,0,4.6-1.51c-.4-13.05.67-25.21-1.42-34.26-3.51-15.2-26.52-22.15-26.52-22.15C161.66,136.73,147,146.2,152,156Z" transform="translate(34.02 7.03)"/><path class="cls-9" d="M168,200.31c-.28-.63-4.91-1.37-5-1.11-.35.79-1.39,3.92-1.07,4.46s4.82,1.67,5.12.89S168.31,200.92,168,200.31Z" transform="translate(34.02 7.03)"/><path d="M166.25,205c-1.41,0-4.2-.76-4.5-1.26-.45-.74.92-4.35,1.06-4.66s.29-.19.5-.19c.88,0,4.61.57,4.93,1.29h0c.36.8-1,4.38-1,4.42-.13.34-.6.38-.75.39Zm-3.07-5.66c-.47,1.1-1.27,3.81-1.05,4.17a10,10,0,0,0,4.44,1c.24,0,.28-.1.28-.1.44-1.15,1.18-3.63,1-4.07S163.88,199.26,163.18,199.37Z" transform="translate(34.02 7.03)"/><path d="M159.32,153c2.38,2.48,5.21,4.48,7.66,6.89a71.53,71.53,0,0,1,5.3,5.85c4.47,1.18,8,2.26,8.49,3.89,1.86,6.37,3.17,23.1,4.94,29,.63.72,1.95.74,3.33.48a20.09,20.09,0,0,0,.27-3.06,37.64,37.64,0,0,0-.78-9A82.56,82.56,0,0,0,183,169.24c-1.4-3.09-2.77-5.76-3.45-9.12a15.07,15.07,0,0,0-2.35-6.18c-3.45-4.57-9.56-5.85-14.09-9a.61.61,0,0,0-.14-.07.44.44,0,0,0-.57-.4C158,145.73,155.85,149.38,159.32,153Z" transform="translate(34.02 7.03)"/><path d="M161.87,202.6s-2.86,2.44-2,5.18c0,0,10.74,3.33,14.16,3.67,0,0,1.12-4-1.6-5a42.05,42.05,0,0,0-5.57-1.71S163.34,205.35,161.87,202.6Z" transform="translate(34.02 7.03)"/><path d="M137.9,156.51c4.5,8.9,22,6.37,23.31,10.7,1.86,6.36,3.07,29.4.67,33.1a4.81,4.81,0,0,0,.74.66,17.32,17.32,0,0,0,5.47,2.2c4-8.87,8.08-26.17,8.7-36.2,1-15.56-25.14-25.26-25.14-25.26-3.3-3.6-13.66,2-14.67,9.55A8.91,8.91,0,0,0,137.9,156.51Z" transform="translate(34.02 7.03)"/><path d="M137.9,156.51c4.5,8.9,22,6.37,23.31,10.7,1.86,6.36,3.07,29.4.67,33.1a4.81,4.81,0,0,0,.74.66,27.53,27.53,0,0,0,4.1-14.73c0-2.91-.28-5.81-.48-8.7a73.38,73.38,0,0,0-.79-8.9c-1-4.92-4.59-6.24-9.09-7.12-6.33-1.23-14-3-16.42-9.8a.53.53,0,0,0-.22-1,5,5,0,0,0-2.74.51A8.91,8.91,0,0,0,137.9,156.51Z" transform="translate(34.02 7.03)"/><path class="cls-9" d="M170,142.59c-.16.5-7.06,4.46-10.92,5.9-6.68,2.51-18,4.47-20.88,3.92-1.19-.22-1.95-.54-2.13-.92-.56-1.21,1.37-12.94,1.14-20.74,0-1.51-.08-3-.08-4.54,0-7.85.51-15.19,2.29-16.56.4-.31.87-.64,1.38-1a26.43,26.43,0,0,1,8.22-3.74,22.87,22.87,0,0,1,11-.17,0,0,0,0,0,0,0,22.31,22.31,0,0,1,3,.91l.74.27c3.47,1.4,3,8.94,2.41,15.28a60.51,60.51,0,0,0-.41,7.28,13.37,13.37,0,0,0,.21,1.67C166.86,134.83,169.44,139.2,170,142.59Z" transform="translate(34.02 7.03)"/><path d="M139.5,152.72a8,8,0,0,1-1.33-.09c-1.3-.24-2.07-.6-2.28-1s-.08-2.77.32-6.92a121,121,0,0,0,.79-13.91c-.05-1.8-.07-3.25-.07-4.55,0-6.78.34-15.18,2.37-16.74.36-.28.79-.59,1.4-1a26.42,26.42,0,0,1,2.7-1.62A25.32,25.32,0,0,1,149,104.7a23.2,23.2,0,0,1,11.14-.17l.18,0a22.35,22.35,0,0,1,2.91.88l.52.19.22.08c3.5,1.41,3.18,8.43,2.55,15.51l-.08.94a50,50,0,0,0-.33,6.31,13.49,13.49,0,0,0,.21,1.64,36.58,36.58,0,0,0,2.24,7.17,29.89,29.89,0,0,1,1.7,5.25v.06l0,0c-.22.7-7.66,4.77-11,6C153.2,151,143.63,152.72,139.5,152.72Zm15.4-48.34a23.1,23.1,0,0,0-5.81.75,25.14,25.14,0,0,0-5.48,2.12,26.7,26.7,0,0,0-2.66,1.59c-.6.41-1,.71-1.37,1-1.45,1.11-2.25,7.08-2.2,16.38,0,1.29,0,2.74.07,4.54a121.61,121.61,0,0,1-.79,14c-.32,3.32-.59,6.19-.36,6.68,0,.11.34.5,2,.8,2.84.54,14.06-1.39,20.76-3.91,3.69-1.38,10.15-5.06,10.76-5.74a29.81,29.81,0,0,0-1.66-5.08,37,37,0,0,1-2.26-7.25,14,14,0,0,1-.22-1.69,50.94,50.94,0,0,1,.33-6.38l.08-.94c.46-5.11,1.21-13.65-2.27-15l-.21-.08-.52-.19a22.63,22.63,0,0,0-3-.9l-.18,0A22.57,22.57,0,0,0,154.9,104.38Z" transform="translate(34.02 7.03)"/><path class="cls-5" d="M171.5,142.77c-.16.5-9.25,4.76-14.4,6.87-6.61,2.71-16,3.32-18.88,2.77-1.19-.22-1.95-.54-2.13-.92-.56-1.21,1.37-12.94,1.14-20.74,0-1.51-.08-3-.08-4.54,0-7.85.51-15.19,2.29-16.56.4-.31.87-.64,1.38-1a26.43,26.43,0,0,1,8.22-3.74,22.87,22.87,0,0,1,11-.17,0,0,0,0,0,0,0,22.31,22.31,0,0,1,3,.91l.74.27c3.47,1.4,3.61,9.14,3,15.48C166.67,124.35,172.26,142.42,171.5,142.77Z" transform="translate(34.02 7.03)"/><path d="M137.34,118.42s-.22,4.17-.19,7.33l6-7.33-4.83-4Z" transform="translate(34.02 7.03)"/><path class="cls-9" d="M157,100.87v3.39s.8,1.47,0,1.63c-1.76.35-4.31-1.63-4.31-1.63V99.08Z" transform="translate(34.02 7.03)"/><path d="M156.58,106.15c-1.77,0-3.9-1.64-4-1.71l-.09-.07V98.75l4.75,2v3.49c.14.26.52,1.07.29,1.56a.66.66,0,0,1-.47.35A2.56,2.56,0,0,1,156.58,106.15Zm-3.63-2c.45.33,2.57,1.8,4,1.52a.18.18,0,0,0,.14-.1,2,2,0,0,0-.3-1.21l0-.1V101L153,99.42Z" transform="translate(34.02 7.03)"/><path class="cls-9" d="M151.61,93.17a23.38,23.38,0,0,0-1.6,6.31c-.16,2.14,3.9,4.71,6.89,1.53s1.83-7.7,1.83-7.7Z" transform="translate(34.02 7.03)"/><path d="M153.7,102.73a4.28,4.28,0,0,1-1.73-.37,3.26,3.26,0,0,1-2.19-2.89,23.47,23.47,0,0,1,1.63-6.39l.05-.14,7.44.15,0,.17c.05.19,1.15,4.67-1.88,7.91A4.6,4.6,0,0,1,153.7,102.73Zm-1.94-9.34a23.55,23.55,0,0,0-1.53,6.11,2.84,2.84,0,0,0,1.92,2.45,4,4,0,0,0,4.58-1.09c2.55-2.72,2-6.5,1.81-7.33Z" transform="translate(34.02 7.03)"/><path d="M149,92.37c1.56,2.16,5.25,2.15,8,2,0,.28,0,.59-.06.82-.09,1-.58,2.3-.15,3.31a1.29,1.29,0,0,0,1.7.73,1.09,1.09,0,0,0,.69-.87c1.11-1.8,1.07-5-.17-6.55a4.5,4.5,0,0,0-3.08-1.36,7.3,7.3,0,0,1-2.61-.71,5.18,5.18,0,0,0-1.49-.69C149.62,88.63,147.38,90.15,149,92.37Z" transform="translate(34.02 7.03)"/><path class="cls-9" d="M139.32,104.24c-.63-.63-2.17-1.95-3.9-3.49-4-3.57-9.3-8.41-11-12.73-1.15-2.85-4.36-7.59-5.29-9.6-.48-1-1-1.92-1.37-2.67a6.09,6.09,0,0,0,.48-.67h0A8.33,8.33,0,0,0,120,72.26c0-.44-.13-1-.65-.63a2.6,2.6,0,0,0-.67,1v0c0-1.73-.54-3.64-1.9-4.58-.88-.62-1.29-.06-.78.78,1,1.62,1.15,3-.16.53-.26-.5-1.06-1.41-1.43-1.21-.8.42.37,2.09.79,2.89,0,.79-1.28-.93-1.69-1.07-1.85-.64.45,2.61.3,2.86-.41.69-1.61-1.75-1.9-.49-.22,1,1.8,2.7,2.07,3.47.14.42.07.81.21,1.13a157.93,157.93,0,0,0,2.43,17c1.41,6.29,1.44,8.3,7.46,14.34a38,38,0,0,0,2.77,2.8c.25.23.53.47.83.72,2.22,1.89,5.18,3.9,7.93,4.1S141.33,106.25,139.32,104.24Z" transform="translate(34.02 7.03)"/><path d="M135.69,116.1h-.1c-2.89-.21-6-2.37-8.06-4.15-.29-.25-.57-.49-.83-.73a35.53,35.53,0,0,1-2.67-2.69l-.11-.12c-5.58-5.59-6-7.76-7.2-13-.1-.45-.21-.93-.32-1.44A160.91,160.91,0,0,1,114,77a2.15,2.15,0,0,1-.11-.55,2.11,2.11,0,0,0-.09-.55,5.64,5.64,0,0,0-.8-1.13c-.71-.87-1.44-1.77-1.28-2.47,0-.11.1-.44.38-.52s.66.21,1,.54a2.91,2.91,0,0,0,.5.41c-.06-.15-.19-.41-.3-.63-.55-1.08-.92-1.88-.58-2.26s.74-.13.89-.08a3,3,0,0,1,.78.64c.13.14.32.32.48.46l-.11-.18c-.43-.75-1-1.68-.78-2.29a.66.66,0,0,1,.35-.43.54.54,0,0,1,.41,0,2.34,2.34,0,0,1,1,.81.88.88,0,0,1,0-1c.13-.11.49-.33,1.18.15a5.52,5.52,0,0,1,2,4,2,2,0,0,1,.37-.39.6.6,0,0,1,.68-.09.93.93,0,0,1,.32.93,7.16,7.16,0,0,1-1.87,2.93,4.91,4.91,0,0,1-.38.55c.47.84.89,1.68,1.3,2.55s1.16,2.13,2,3.52a52.85,52.85,0,0,1,3.31,6.1c1.83,4.53,7.79,9.81,11,12.64l1.47,1.3c1.11,1,2,1.75,2.44,2.2,1.46,1.46.49,6.06-.76,8.82C138.17,114.11,137.05,116.1,135.69,116.1ZM112.2,72.21a.4.4,0,0,0-.07.19c-.11.48.64,1.41,1.19,2.09a5.41,5.41,0,0,1,.87,1.26,2.89,2.89,0,0,1,.12.66,1.82,1.82,0,0,0,.08.45l0,.07a161.67,161.67,0,0,0,2.43,16.94c.11.51.21,1,.31,1.44,1.13,5.15,1.6,7.28,7.09,12.79l.12.13a36.85,36.85,0,0,0,2.64,2.66c.25.23.53.47.82.71,2,1.74,5,3.85,7.8,4.05.84.06,1.83-1,2.69-2.93,1.35-3,2-7.17.85-8.32h0c-.44-.44-1.31-1.21-2.42-2.18l-1.47-1.3c-4.8-4.25-9.46-8.74-11.11-12.81a50.51,50.51,0,0,0-3.28-6c-.87-1.46-1.62-2.72-2-3.56s-.86-1.77-1.35-2.65l-.07-.13.09-.12A5.41,5.41,0,0,0,118,75l.1-.11c1.32-1.54,1.65-2.27,1.69-2.62a.62.62,0,0,0-.1-.49s-.09,0-.18.08a2.06,2.06,0,0,0-.6.89l-.42,1,0-1.11c0-1-.22-3.29-1.81-4.4-.34-.24-.55-.24-.61-.19s-.07.32.15.68c0,0,1,1.69.77,2.1l-.07.11h-.16c-.13,0-.32,0-1.09-1.47a2.81,2.81,0,0,0-1.06-1.12s-.06,0-.07,0a.21.21,0,0,0-.13.16c-.13.42.4,1.33.74,1.93l.28.5,0,.1a.42.42,0,0,1-.21.41c-.29.11-.62-.19-1.17-.74a3.07,3.07,0,0,0-.61-.53c-.32-.11-.4-.06-.4-.06-.16.19.44,1.38.64,1.77.34.68.44.88.34,1.06a.5.5,0,0,1-.33.23c-.3,0-.6-.25-.92-.55-.16-.15-.45-.43-.56-.43ZM115,71.1Z" transform="translate(34.02 7.03)"/><path class="cls-5" d="M134.88,99.57c1.17.53,8.57,4.05,11.27,9.15,1.23,2.32,2.51,8.5-.3,10.26-4.5,2.81-13.48-2-19.83-5.84C126.48,107.76,129.9,102.93,134.88,99.57Z" transform="translate(34.02 7.03)"/><path class="cls-9" d="M192.63,74.3c-.24-1.23-1.47,1.09-1.85.41-.14-.24,2.18-3.32.38-2.75-.4.13-1.68,1.75-1.66,1,.42-.76,1.6-2.34.84-2.77-.36-.2-1.15.65-1.42,1.13-1.33,2.37-1.12,1-.13-.52.51-.79.13-1.34-.73-.78-1.34.88-1.9,2.71-2,4.37v0a2.38,2.38,0,0,0-.62-1c-.48-.37-.67.16-.64.59a8,8,0,0,0,1.68,2.77h0a6.67,6.67,0,0,0,.43.66c-.42.71-.89,1.55-1.39,2.53-.95,1.92-4.18,6.4-5.38,9.12-1.8,4.11-7,8.91-10.86,12.36-1.67,1.48-3.17,2.75-3.77,3.36-1.95,1.94.95,11.42,3.58,11.23s5.52-2.12,7.66-4c.28-.24.55-.47.79-.7a36.57,36.57,0,0,0,2.68-2.7c5.81-5.83,5.69-7.66,7.23-13.69a154.56,154.56,0,0,0,2.83-16.3c.14-.3.09-.68.24-1.08C190.82,76.85,192.81,75.22,192.63,74.3Z" transform="translate(34.02 7.03)"/><path d="M169,116.24c-1.33,0-2.4-1.93-2.94-3.09-1.21-2.67-2.14-7.12-.73-8.53.43-.43,1.28-1.17,2.35-2.11l1.43-1.26c4.38-3.89,9.1-8.38,10.81-12.28a50.88,50.88,0,0,1,3.36-5.79c.84-1.32,1.64-2.56,2-3.34s.85-1.62,1.33-2.42c-.13-.18-.25-.36-.35-.53A7.06,7.06,0,0,1,184.6,74a.91.91,0,0,1,.34-.9.58.58,0,0,1,.66.11,2.05,2.05,0,0,1,.34.38,5.2,5.2,0,0,1,2-3.76c.69-.45,1-.23,1.15-.12a.84.84,0,0,1,0,1,2.22,2.22,0,0,1,.93-.72.55.55,0,0,1,.4,0,.72.72,0,0,1,.34.44c.15.59-.39,1.47-.83,2.19l-.08.13a5.84,5.84,0,0,0,.44-.4,2.64,2.64,0,0,1,.77-.59c.16,0,.62-.2.87.09S191.9,73,191.33,74c-.1.2-.23.43-.29.57a2.44,2.44,0,0,0,.47-.37c.34-.31.66-.6,1-.49s.34.42.36.52h0c.13.68-.6,1.53-1.3,2.35a5,5,0,0,0-.8,1.07,1.93,1.93,0,0,0-.11.53,2,2,0,0,1-.12.52A154.67,154.67,0,0,1,187.69,95c-.17.69-.33,1.32-.47,1.91-1.12,4.58-1.63,6.67-6.82,11.88l-.1.11c-.31.34-1.27,1.4-2.59,2.6-.24.22-.51.46-.8.7-2,1.71-5,3.81-7.78,4ZM186.6,76.52h0l.06.12c.12.2.26.42.42.64l.09.12-.07.13c-.5.82-.95,1.65-1.38,2.51s-1.17,2-2.05,3.38a50.15,50.15,0,0,0-3.33,5.73c-1.75,4-6.5,8.52-10.92,12.43L168,102.85c-1.06.93-1.9,1.67-2.32,2.09-1.11,1.11-.48,5.15.82,8,.83,1.83,1.79,2.87,2.59,2.83,2.67-.19,5.56-2.23,7.52-3.91.28-.23.55-.46.79-.68,1.3-1.19,2.25-2.23,2.56-2.57a1,1,0,0,1,.11-.13c5.1-5.11,5.57-7,6.7-11.66.14-.6.3-1.23.48-1.92a156.54,156.54,0,0,0,2.82-16.28l0-.07a1.54,1.54,0,0,0,.09-.43,2.33,2.33,0,0,1,.14-.63,5,5,0,0,1,.88-1.2c.54-.64,1.29-1.5,1.2-2,0-.16-.07-.19-.07-.19a2.16,2.16,0,0,0-.53.41c-.32.28-.62.55-.91.5a.47.47,0,0,1-.32-.24c-.09-.17,0-.36.36-1,.2-.38.82-1.51.67-1.68,0,0-.08,0-.38,0a3.87,3.87,0,0,0-.6.5c-.55.51-.88.8-1.16.67-.09,0-.2-.14-.2-.4l0-.1c.07-.13.17-.29.28-.47.35-.57.88-1.43.77-1.84a.18.18,0,0,0-.12-.15c-.14-.06-.8.49-1.11,1-.79,1.4-1,1.4-1.1,1.4h-.13l-.09-.14c-.22-.4.79-2,.8-2,.24-.37.21-.59.16-.64s-.25,0-.58.17c-1.56,1-1.82,3.27-1.87,4.19l0,1-.39-1a2.06,2.06,0,0,0-.56-.89.31.31,0,0,0-.17-.08.67.67,0,0,0-.1.47C185.08,74.29,185.37,75,186.6,76.52Z" transform="translate(34.02 7.03)"/><path class="cls-5" d="M169.82,100.27c-1.13.52-8.27,3.92-10.88,8.84-1.19,2.24-2.42,8.2.29,9.9,4.34,2.72,13-2,19.14-5.64C177.92,108.18,174.62,103.52,169.82,100.27Z" transform="translate(34.02 7.03)"/><path class="cls-5" d="M74.73,203.83H77a1.53,1.53,0,0,0,1.52-1.53V191.63H73.21V202.3A1.53,1.53,0,0,0,74.73,203.83Z" transform="translate(34.02 7.03)"/><path class="cls-5" d="M44.39,206.84a5.17,5.17,0,0,1,3.3-6.52l24.16-7.95V178H79.9v14.47l23.82,7.84a5.16,5.16,0,0,1,3.3,6.52L75.71,196.55h0Z" transform="translate(34.02 7.03)"/><path class="cls-5" d="M71.16,193.25h9.09V175.87a2.6,2.6,0,0,0-2.59-2.6h-3.9a2.6,2.6,0,0,0-2.6,2.6Z" transform="translate(34.02 7.03)"/><path d="M99.36,205a5.09,5.09,0,1,1,5.09,5.1A5.09,5.09,0,0,1,99.36,205Z" transform="translate(34.02 7.03)"/><path class="cls-5" d="M100.46,205a4,4,0,1,1,4,4A4,4,0,0,1,100.46,205Z" transform="translate(34.02 7.03)"/><path d="M70.78,205a5.1,5.1,0,1,1,5.09,5.1A5.09,5.09,0,0,1,70.78,205Z" transform="translate(34.02 7.03)"/><path class="cls-5" d="M71.89,205a4,4,0,1,1,4,4A4,4,0,0,1,71.89,205Z" transform="translate(34.02 7.03)"/><path d="M41.36,205a5.09,5.09,0,1,1,5.09,5.1A5.09,5.09,0,0,1,41.36,205Z" transform="translate(34.02 7.03)"/><path class="cls-5" d="M42.47,205a4,4,0,1,1,4,4A4,4,0,0,1,42.47,205Z" transform="translate(34.02 7.03)"/><path class="cls-5" d="M43.32,166.43a4,4,0,0,0,4,4H81.13l2.43-.76c6.09-1.94,21.66-7,22.7-8.64,1.29-2,4.36-30.64,4.36-30.64H76.86a4.05,4.05,0,0,0-4.36,3.72l-.79,17.9a11.25,11.25,0,0,1-11.16,10.31H47.37A4.05,4.05,0,0,0,43.32,166.43Z" transform="translate(34.02 7.03)"/><path d="M68.72,175.64H82c2,0,3.53-2.81,3.53-6.26H65.18C65.18,172.83,66.77,175.64,68.72,175.64Z" transform="translate(34.02 7.03)"/><path class="cls-5" d="M43.32,166.43a4,4,0,0,0,4,4H83.56v-8.11H47.37A4.05,4.05,0,0,0,43.32,166.43Z" transform="translate(34.02 7.03)"/><path d="M81.13,170.48H94.31a19.41,19.41,0,0,0,19.25-17.78l.78-17.9a4.05,4.05,0,1,0-8.08-.64l-.78,17.9a11.26,11.26,0,0,1-11.17,10.31H81.13a4.06,4.06,0,0,0,0,8.11Z" transform="translate(34.02 7.03)"/><path class="cls-9" d="M43.33,195.45c.58-.38,4.86,1.53,4.81,1.81-.13.86-1,4.05-1.53,4.32s-5-1.23-4.78-2.05S42.77,195.81,43.33,195.45Z" transform="translate(34.02 7.03)"/><path d="M46.43,201.83a10.89,10.89,0,0,1-4.4-1.6c-.12-.1-.49-.39-.42-.75,0,0,.86-3.75,1.6-4.22h0c.66-.44,4.1,1.13,4.84,1.61.18.11.34.24.32.43s-.89,4.11-1.66,4.48A.7.7,0,0,1,46.43,201.83Zm-3-6.2c-.41.27-1.14,2.75-1.4,4,0,0,0,.07.19.24a10.13,10.13,0,0,0,4.28,1.56c.38-.19,1.18-2.87,1.39-4.07C47.39,196.85,43.89,195.42,43.45,195.63Z" transform="translate(34.02 7.03)"/><path d="M47.24,200.74s1.07,3.6-1.17,5.41c0,0-10.81-3.07-13.86-4.65,0,0,1.23-3.95,4.1-3.36a42.63,42.63,0,0,1,5.59,1.61S44.51,202.24,47.24,200.74Z" transform="translate(34.02 7.03)"/><path d="M83,156c-2.81,5.56-12.86,7.82-20.33,9.79-4.47,1.18-8,2.26-8.49,3.89-1.86,6.37-3.17,23.1-4.93,29-.64.72-2,.74-3.33.48a22.09,22.09,0,0,1-4.6-1.51c.4-13.05-.68-25.21,1.42-34.26,3.51-15.2,26.52-22.15,26.52-22.15C73.25,136.73,87.88,146.2,83,156Z" transform="translate(34.02 7.03)"/><path class="cls-9" d="M66.87,200.31c.28-.63,4.91-1.37,5-1.11.36.79,1.4,3.92,1.08,4.46s-4.83,1.67-5.12.89S66.6,200.92,66.87,200.31Z" transform="translate(34.02 7.03)"/><path d="M68.65,205h-.26c-.16,0-.62-.05-.75-.39,0,0-1.33-3.62-1-4.42h0c.33-.72,4.06-1.29,4.94-1.29h0c.21,0,.42,0,.5.19s1.5,3.92,1.06,4.66C72.86,204.27,70.06,205,68.65,205Zm-1.58-4.63c-.19.44.55,2.92,1,4.07,0,0,0,.06.28.1a10.06,10.06,0,0,0,4.44-1c.21-.36-.59-3.07-1.06-4.17C71,199.26,67.32,200,67.07,200.4Z" transform="translate(34.02 7.03)"/><path d="M72.49,144.49a.44.44,0,0,0-.57.4.37.37,0,0,0-.14.07c-4.54,3.13-10.65,4.41-14.09,9a14.8,14.8,0,0,0-2.35,6.18,41.39,41.39,0,0,1-3.46,9.12A83.1,83.1,0,0,0,46.38,187a37.65,37.65,0,0,0-.79,9,21.49,21.49,0,0,0,.28,3.06c1.37.26,2.69.24,3.33-.48,1.76-5.86,3.07-22.59,4.93-29,.48-1.63,4-2.71,8.49-3.89a71.65,71.65,0,0,1,5.31-5.85c2.44-2.41,5.28-4.41,7.65-6.89C79.05,149.38,76.91,145.73,72.49,144.49Z" transform="translate(34.02 7.03)"/><path d="M73,202.6s2.86,2.44,2,5.18c0,0-10.73,3.33-14.15,3.67,0,0-1.13-4,1.6-5A41.57,41.57,0,0,1,68,204.69S71.57,205.35,73,202.6Z" transform="translate(34.02 7.03)"/><path d="M97,156.51c-4.49,8.9-22,6.37-23.31,10.7-1.86,6.36-3.06,29.4-.66,33.1a6,6,0,0,1-.74.66,17.32,17.32,0,0,1-5.47,2.2c-4-8.87-8.09-26.17-8.7-36.2-.95-15.56,25.14-25.26,25.14-25.26,3.3-3.6,13.66,2,14.66,9.55A8.83,8.83,0,0,1,97,156.51Z" transform="translate(34.02 7.03)"/><path d="M97.92,151.26a5,5,0,0,0-2.74-.51.53.53,0,0,0-.22,1c-2.39,6.81-10.08,8.57-16.42,9.8-4.49.88-8.11,2.2-9.09,7.12a71.41,71.41,0,0,0-.78,8.9c-.2,2.89-.48,5.79-.49,8.7A27.54,27.54,0,0,0,72.29,201a6,6,0,0,0,.74-.66c-2.4-3.7-1.2-26.74.66-33.1,1.27-4.33,18.82-1.8,23.31-10.7A8.83,8.83,0,0,0,97.92,151.26Z" transform="translate(34.02 7.03)"/><path class="cls-11" d="M64.89,142.59c.15.5,7.06,4.46,10.92,5.9,6.68,2.51,18,4.47,20.88,3.92,1.18-.22,1.94-.54,2.12-.92.56-1.21-1.36-12.94-1.13-20.74,0-1.51.07-3,.07-4.54,0-7.85-.51-15.19-2.28-16.56-.4-.31-.87-.64-1.39-1a26.32,26.32,0,0,0-2.68-1.61,25.7,25.7,0,0,0-5.53-2.13,22.91,22.91,0,0,0-11-.17,0,0,0,0,1,0,0,22.19,22.19,0,0,0-3,.91l-.74.27c-3.47,1.4-3,8.94-2.41,15.28A62.68,62.68,0,0,1,69,128.5a15.55,15.55,0,0,1-.21,1.67C68.05,134.83,65.47,139.2,64.89,142.59Z" transform="translate(34.02 7.03)"/><path class="cls-9" d="M26.68,137.27c.09-.72,1.45-1.91,2-2.41a7.92,7.92,0,0,1,4.42-2c-.05-.13-.09-.26-.13-.38a4.06,4.06,0,0,0-.71.15c-.57.18-1-.64-.49-1a2,2,0,0,1,1.71-.33,39.15,39.15,0,0,1,4,2.13,20.11,20.11,0,0,1,4.67-.3h1.34c3.68,0,13.11-5,14-5.54.49-.33,1.1-2,2.51-5,.08-.18.18-.38.27-.57s.29-.62.46-1a.21.21,0,0,1,0-.07c2.83-6,6.78-12.1,10.29-14.1s1.37,14,1.37,14a15.17,15.17,0,0,1,.14,3.46c-.12,2-.72,3.49-2.22,5.87,0,.09-.12.18-.17.28-.34.53-.73,1.07-1.16,1.63-.33.39-.66.78-1,1.19-.21.23-.45.47-.69.7a18.62,18.62,0,0,1-5.47,4.07c-4.29,2.34-6.3,2.43-14.15,1.65a47.5,47.5,0,0,1-11.79-2.84,6.24,6.24,0,0,1-1,.81c-1.36,1-2.43.23-2.11-.07-.84.43-1.69,0-1.47-.44-.79.22-2-.79-1-1.54a7.77,7.77,0,0,0-2.49,1.89C27.27,138.09,26.6,137.88,26.68,137.27Z" transform="translate(34.02 7.03)"/><path d="M54.07,140.41c-1.68,0-3.73-.17-6.48-.45a47.93,47.93,0,0,1-11.71-2.79,7.82,7.82,0,0,1-1,.73c-1.06.8-2,.59-2.38.19l-.08-.12a1.38,1.38,0,0,1-1.32-.23.67.67,0,0,1-.17-.29,1.5,1.5,0,0,1-1.27-.76.84.84,0,0,1-.08-.46,8.38,8.38,0,0,0-1.71,1.46.91.91,0,0,1-1,.33.69.69,0,0,1-.39-.78h0c.07-.57.76-1.41,2.11-2.55a9.21,9.21,0,0,1,3.32-1.84.81.81,0,0,1-.49-.45.7.7,0,0,1,.29-.92,2.14,2.14,0,0,1,1.89-.34,39.34,39.34,0,0,1,3.93,2.1,21.85,21.85,0,0,1,4.63-.29h1.42c3.56,0,12.76-4.87,13.75-5.51a10,10,0,0,0,1.36-2.61c.29-.66.64-1.44,1.06-2.34l.15-.31L60,122l.13-.28c.1-.22.21-.45.33-.68l0-.07c3.35-7.09,7.24-12.39,10.39-14.19a1.06,1.06,0,0,1,1.19,0c2.11,1.43.71,12.73.52,14.19a16,16,0,0,1,.13,3.48c-.11,2-.68,3.48-2.25,6l-.06.1c0,.05-.07.1-.1.16-.34.53-.73,1.07-1.18,1.66-.32.39-.65.77-1,1.21-.22.24-.47.48-.71.71a19,19,0,0,1-5.51,4.11A14.26,14.26,0,0,1,54.07,140.41Zm-18.3-3.78.14.06a47.33,47.33,0,0,0,11.72,2.83c7.68.77,9.74.71,14-1.62a18.57,18.57,0,0,0,5.42-4c.24-.23.47-.47.69-.7.39-.43.71-.8,1-1.17.45-.58.83-1.11,1.15-1.62l.11-.18.06-.08c1.54-2.46,2.07-3.86,2.18-5.77a14.7,14.7,0,0,0-.13-3.41v-.07c.46-3.47,1.29-12.7-.32-13.78-.12-.09-.33-.17-.72,0-3.62,2.06-7.64,8.58-10.2,14l0,.06c-.12.25-.23.47-.33.69l-.13.28-.12.26c0,.1-.11.2-.15.3-.42.9-.77,1.68-1.06,2.34-.75,1.68-1.13,2.52-1.53,2.8-1,.65-10.39,5.6-14.07,5.57H42.13a20.1,20.1,0,0,0-4.6.3l-.1,0-.1-.07a38.47,38.47,0,0,0-3.9-2.1,1.74,1.74,0,0,0-1.52.31.24.24,0,0,0-.1.34.35.35,0,0,0,.41.22,4.77,4.77,0,0,1,.76-.17h.19l0,.18a2.06,2.06,0,0,0,.12.35l.11.29-.31,0A7.84,7.84,0,0,0,28.86,135c-1.63,1.38-1.93,2-2,2.26h0c0,.16,0,.28.13.32s.34,0,.53-.21a7.9,7.9,0,0,1,2.59-2l1.34-.45-1.14.84c-.28.2-.36.42-.25.65a1,1,0,0,0,1,.49l.49-.13-.23.45s0,0,0,.12a1.05,1.05,0,0,0,1.14,0l1.38-.7-1.12,1.06s.09.08.26.14a1.7,1.7,0,0,0,1.55-.41,6.28,6.28,0,0,0,1-.78Z" transform="translate(34.02 7.03)"/><path class="cls-10" d="M69.52,132.89c1-1.35,2.53-2.88,3.9-4.38.51-.57,1-1.14,1.44-1.68a9.09,9.09,0,0,0,1.36-2.15,2.61,2.61,0,0,0,.23-.89,40.59,40.59,0,0,0-.4-4.73c-.77-6-2.78-14.07-5.42-12.87-4.53,2.06-8.23,8.94-11.46,14.39A14.46,14.46,0,0,0,69.52,132.89Z" transform="translate(34.02 7.03)"/><path d="M68.61,110s-2.45,3.22-2.81,9.18c-.09,1.56-1.66,6.84-1.89,10.53,1.08,1.21,4,2.79,4.51,2.36l.3-12.75Z" transform="translate(34.02 7.03)"/><path class="cls-10" d="M63.41,142.77c.16.5,9.25,4.76,14.4,6.87,6.61,2.71,16,3.32,18.88,2.77,1.18-.22,1.94-.54,2.12-.92.56-1.21-1.36-12.94-1.13-20.74,0-1.51.07-3,.07-4.54,0-7.85-.51-15.19-2.28-16.56-.4-.31-.87-.64-1.39-1a26.32,26.32,0,0,0-2.68-1.61,25.7,25.7,0,0,0-5.53-2.13,22.91,22.91,0,0,0-11-.17,0,0,0,0,1,0,0,22.19,22.19,0,0,0-3,.91l-.74.27c-3.47,1.4-3,8.94-2.41,15.28C68.88,124.16,62.64,142.42,63.41,142.77Z" transform="translate(34.02 7.03)"/><path class="cls-9" d="M79.57,101.3v3.39s-.8,1.47,0,1.63c1.77.36,4.31-1.62,4.31-1.62V99.52Z" transform="translate(34.02 7.03)"/><path d="M80,106.59a2,2,0,0,1-.49,0,.58.58,0,0,1-.46-.35c-.23-.49.15-1.29.28-1.55v-3.49l4.75-2v5.63l-.08.06C83.92,105,81.79,106.59,80,106.59Zm-.22-5.14,0,3.35c-.19.36-.41,1-.3,1.2a.16.16,0,0,0,.15.1c1.46.3,3.58-1.18,4-1.52V99.86Z" transform="translate(34.02 7.03)"/><path class="cls-9" d="M118.51,73.84a5.19,5.19,0,0,0-.53-1.78c-.18-.22-.41-.4-.74-.2a.82.82,0,0,0-.35.77c.06.52-.08.66-.51,1.34-.49-.68-.88-1.76-.47-4.06a3.92,3.92,0,0,0-.1-2.42.43.43,0,0,0-.37-.24l-.1,0a1.93,1.93,0,0,0,0-.27c-.11-.5-.29-.83-.89-.79a1.62,1.62,0,0,0-1.06.71.77.77,0,0,0-.71-.42c-1.23,0-1.47,1.42-1.39,2.85-1.11.48-.32,3.2.62,5.21a2.4,2.4,0,0,0,0,.79c-.94,2.37-5.64,14-10.41,19.85-5.05,6.2-5.67,6.68-8.52,13.83-1.73,5.7,4.57,6.33,8.38,6,4.62-7.18,9.78-16.45,10-17.13s3.71-16.19,4.76-20.77a10.07,10.07,0,0,0,2.16-2.26A1.21,1.21,0,0,0,118.51,73.84Z" transform="translate(34.02 7.03)"/><path d="M99.61,115.3c-2,0-4.91-.34-6.33-2.07a4.41,4.41,0,0,1-.51-4.26c2.67-6.69,3.41-7.6,7.54-12.66l1-1.25c4.72-5.8,9.4-17.32,10.35-19.74a2.69,2.69,0,0,1,0-.73c-.77-1.66-1.44-3.78-1-4.84a1.12,1.12,0,0,1,.42-.53,3.51,3.51,0,0,1,.59-2.53,1.36,1.36,0,0,1,1-.42h0a1,1,0,0,1,.72.29,1.55,1.55,0,0,1,1-.57c.79-.06,1,.45,1.12,1,0,0,0,.06,0,.09a.64.64,0,0,1,.47.35,4.13,4.13,0,0,1,.12,2.56,5.29,5.29,0,0,0,.25,3.6c.27-.43.33-.54.29-.9a1,1,0,0,1,.45-1,.73.73,0,0,1,1,.26,4.18,4.18,0,0,1,.53,1.62l0,.25a1.46,1.46,0,0,1-.29,1.17,10.26,10.26,0,0,1-2.14,2.26L116,78.68c-1.39,6.08-4.28,18.74-4.42,19.24-.2.73-5.46,10.15-10,17.19l-.06.09h-.11A17.46,17.46,0,0,1,99.61,115.3Zm13-48.58a.89.89,0,0,0-.69.28,3.31,3.31,0,0,0-.47,2.34v.16l-.14.06a.59.59,0,0,0-.32.35c-.33.88.29,2.92,1,4.55l0,.06v.06a2.15,2.15,0,0,0,0,.73v.06l0,.06c-.9,2.29-5.64,14-10.44,19.91l-1,1.26c-4.09,5-4.83,5.91-7.47,12.51a4,4,0,0,0,.44,3.84c1.77,2.15,6.14,2,7.61,1.82,4.72-7.34,9.71-16.35,9.88-17s3.13-13.62,4.41-19.22L115.9,77l.07,0a9.2,9.2,0,0,0,2.1-2.21.94.94,0,0,0,.22-.81l-.05-.26a4.17,4.17,0,0,0-.43-1.42c-.2-.24-.31-.24-.46-.15a.58.58,0,0,0-.23.55,1.6,1.6,0,0,1-.4,1.25l-.33.52-.2-.27c-.43-.61-1-1.71-.5-4.23a3.74,3.74,0,0,0-.08-2.28.2.2,0,0,0-.17-.11h-.09l-.23,0v-.23a.85.85,0,0,0,0-.23c-.11-.5-.25-.64-.65-.62a1.38,1.38,0,0,0-.91.63l-.2.26-.17-.28A.53.53,0,0,0,112.63,66.72Z" transform="translate(34.02 7.03)"/><path class="cls-10" d="M85.17,111.13c1.11,2,7.77,9.11,10.26,8.32a21.78,21.78,0,0,0,3-1.18,10.53,10.53,0,0,0,1.79-1.06c4.35-3.06,7.61-9,8.14-10-3.13-5.12-7.37-7.34-12.71-8C91.58,105.3,82.58,106.51,85.17,111.13Z" transform="translate(34.02 7.03)"/><path class="cls-9" d="M83.08,103.32a4.32,4.32,0,0,1-3.51-1.86c-2.64-3.44-1.08-7.84-1.07-7.88l0-.14,7.24.57,0,.13a23.58,23.58,0,0,1,1,6.38C86.75,102,85,103.32,83.08,103.32Z" transform="translate(34.02 7.03)"/><path d="M78.69,93.64l7,.55a22.88,22.88,0,0,1,1,6.33c0,1.3-1.66,2.6-3.51,2.6a4.19,4.19,0,0,1-3.36-1.78c-2.6-3.4-1-7.7-1-7.7Zm-.27-.41-.1.28c-.07.18-1.61,4.54,1.09,8.07a4.61,4.61,0,0,0,3.67,1.94c2,0,3.86-1.43,3.91-3a23.55,23.55,0,0,0-1-6.45l-.08-.26-.27,0-7-.55-.3,0Z" transform="translate(34.02 7.03)"/><path d="M75.91,96.11c-.79.82.16,1.75,1.21,2.2a1,1,0,0,0,.11.29c-.32,1.11.19,2.38,1.53,1.85,1.24,1.75,2.9,3.36,5.5,3A3.1,3.1,0,0,0,86.61,101c0-1.16-2-.44-2.48-1.26a.56.56,0,0,0-.74-.18,1.88,1.88,0,0,1-2.3.24,3.87,3.87,0,0,1-1.24-1.06,16.58,16.58,0,0,0-.2-2.47c0-.21,0-1.09,0-1.81,2.69.39,6.28.76,8-1.19,1.53-1.74.22-3.24-1.59-3.48a1.87,1.87,0,0,0-2.78-.11c-.54-.45-1.21-.85-1.83-.48a1,1,0,0,0-.48.66,1.17,1.17,0,0,0-.68-.06,1.75,1.75,0,0,0-.93.54c-.7-.49-1.9.33-2,1.38a1.48,1.48,0,0,0-.86,1.84A1.64,1.64,0,0,0,75.91,96.11Z" transform="translate(34.02 7.03)"/><polygon class="cls-9" points="197.63 69.29 194.7 52.11 234.29 47.35 234.96 75.2 202.12 76.75 192.66 83.72 197.63 69.29"/><path d="M200,40.6l.65,27.33-32.51,1.53H168l-.13.09L159.14,76l4.69-13.61,0-.12,0-.13L161,45.29,200,40.6Zm.48-.56-40.12,4.82,3,17.38-5.21,15.13L168.19,70l33-1.55L200.51,40Z" transform="translate(34.02 7.03)"/><path d="M178.41,47.87l-1.4.49a.43.43,0,0,0-.43-.11c-.21.06-1.25.55-1.3.14a.44.44,0,0,0-.67-.37s-2.4,1.52-2.39.73c0-.47-.6-.53-.83-.2l-1.2.46a.44.44,0,0,0-.74-.18,1.48,1.48,0,0,1-2.06.47c-.25-.51-1,0-.75.47.72,1.47,2.09.91,3.05.07.52.58,1.26.34,1.87-.18.56.71,2.06,0,3-.57a1,1,0,0,0,.52.55c.81.37.7-.19,1.38-.26,1.24-.14,1.73.43,2.75-1.09C179.51,47.82,178.73,47.4,178.41,47.87Z" transform="translate(34.02 7.03)"/><path d="M195.65,45.81c-.87.48-2.55,1.79-3.59,1a.45.45,0,0,0-.43-.1c-.24.1-1,.55-1.22.32a.45.45,0,0,0-.61-.14,1.63,1.63,0,0,1-2,.26.44.44,0,0,0-.62,0h-1.55c-.19-.53-1.05-.28-.84.26a1.58,1.58,0,0,0,2.72.68,2,2,0,0,0,2.49-.27c.63.51,1-.06,1.83-.1.45,0,.76.38,1.34.3a9.8,9.8,0,0,0,3-1.44C196.62,46.29,196.15,45.54,195.65,45.81Z" transform="translate(34.02 7.03)"/><path d="M181.94,51.67a10.63,10.63,0,0,1-2.87.34.46.46,0,0,0-.61-.14,3.28,3.28,0,0,1-1.85.59c-.25,0-.08-.26-.56-.15-.25,0-1.25.25-1.27.5a.44.44,0,0,0-.67-.37c-.15.11-.32.2-.47.29l0-.06a.44.44,0,0,0-.61-.14,13.17,13.17,0,0,0-1.38,1c-.19-.53-1-.28-.85.26.41,1.13,1.55.34,2.31-.2v0a.45.45,0,0,0,.61.14c.14-.07.27-.16.4-.24.28.26.83.16,1.28.09a6.65,6.65,0,0,1,.93-.2c.09,0,.49.17.57.17a3.77,3.77,0,0,0,1.71-.72c.38.38.86.28,1.49.16,1-.18,2.08,0,2.64-.91C183,51.6,182.23,51.18,181.94,51.67Z" transform="translate(34.02 7.03)"/><path d="M192.12,51.14c-.17.27-1-.12-1.29-.12a1.2,1.2,0,0,0-.56.11c-.2.09-.33.13-.24.33-.24-.52-1,0-.75.46a.68.68,0,0,0,.65.38,1,1,0,0,0,.46-.18c.3-.17.38-.24.72-.16.68.15,1.36.28,1.79-.4C193.21,51.08,192.43,50.66,192.12,51.14Z" transform="translate(34.02 7.03)"/><path d="M180.22,57.22c-.29.08-2.36.72-2.52.48a.45.45,0,0,0-.69-.07l-.56.08a.47.47,0,0,0-.51-.2c-.39.11-3.47.84-3.63.64a.45.45,0,0,0-.7-.07,1.53,1.53,0,0,1-1.79.59c-.43-.37-1,.27-.61.64,1,.86,1.91.47,2.73-.3a1.42,1.42,0,0,0,1.08.37c.66,0,.8-.52,1.36-.61.3,0,.63.14.94.1s.43-.31.6-.34c0,0,.28.15.32.14a2.52,2.52,0,0,0,1-.17c.85.55,2.38-.22,3.2-.43C181,57.93,180.77,57.08,180.22,57.22Z" transform="translate(34.02 7.03)"/><path d="M195.24,55.61a42,42,0,0,0-4.32-.16.44.44,0,0,0-.62,0,2.42,2.42,0,0,1-2.63.82.44.44,0,0,0-.6.17l-1.45.23a.44.44,0,0,0-.54,0l-2.14.1c-.48-.32-.9.46-.42.77,1.12.73,2,.24,3.1.34.93.08,1.55.18,2-.61a2.09,2.09,0,0,0,1.34.07c.58-.14,1.06-.8,1.58-.89.2,0,.9.2,1.19.2a21.86,21.86,0,0,1,2.28-.21,5.31,5.31,0,0,0,1.21.09C195.83,56.44,195.81,55.55,195.24,55.61Z" transform="translate(34.02 7.03)"/><path d="M183.85,61.6c-.36.16-.65-.09-1-.05s-.69.25-1.05.32c-.53.09-2.94.28-3,.24a.47.47,0,0,0-.51-.19,23.18,23.18,0,0,1-3.58.92c-.34-.45-1.1,0-.75.47.58.76,1,.59,1.78.33.54-.17,1-.1,1.51-.24.26-.06.5-.32.74-.37s.19-.05.18-.07l.18,0c.25,0,.49.38.84.41.73.06,1.42-.44,2.13-.53a6.85,6.85,0,0,0,.88-.08,10,10,0,0,0,1.86-.36C184.63,62.22,184.38,61.37,183.85,61.6Z" transform="translate(34.02 7.03)"/><path d="M195.94,60.73c-.3-.11-.33-.49-.72-.54s-.77.36-1.15.49c-.53.17-1,0-1.58.09-.77.2-1.24.85-2.09.27-.47-.32-.89.46-.42.78,1.17.81,2.08-.16,3.27-.2a3.47,3.47,0,0,0,1.48-.27c.59-.26.42,0,1,.24S196.47,60.93,195.94,60.73Z" transform="translate(34.02 7.03)"/><polygon class="cls-9" points="242.42 145.45 239.07 151.13 49.98 151.13 46.62 145.45 242.42 145.45"/><path d="M205.17,144.32H15.83l-3.62-6.12H208.79Zm-189.09-.45H204.92l3.09-5.22H13Z" transform="translate(34.02 7.03)"/><polygon points="222.81 216.55 225.8 216.55 220.63 151.13 214.28 151.13 222.81 216.55"/><polygon class="cls-9" points="237 216.55 240 216.55 234.82 151.13 228.48 151.13 237 216.55"/><path d="M206.22,209.75h-3.44l-8.58-65.88H201l0,.21Zm-3-.45h2.55l-5.13-65h-5.89Z" transform="translate(34.02 7.03)"/><polygon class="cls-9" points="50.87 216.55 47.87 216.55 53.04 151.13 59.39 151.13 50.87 216.55"/><path d="M17,209.75H13.61l5.2-65.88h6.81l0,.26Zm-2.95-.45h2.56l8.46-65H19.23Z" transform="translate(34.02 7.03)"/><polygon points="65.21 216.55 62.22 216.55 67.39 151.13 73.74 151.13 65.21 216.55"/><rect x="187.46" y="143.69" width="23.23" height="1.6"/><rect x="208.64" y="142.95" width="1.35" height="0.95"/><rect x="206.69" y="142.95" width="1.35" height="0.95"/><rect x="204.74" y="142.95" width="1.35" height="0.95"/><rect x="202.79" y="142.96" width="1.35" height="0.95"/><rect x="200.84" y="142.96" width="1.35" height="0.95"/><rect x="198.89" y="142.96" width="1.34" height="0.95"/><rect x="196.94" y="142.96" width="1.34" height="0.95"/><rect x="194.99" y="142.96" width="1.34" height="0.95"/><rect x="193.04" y="142.96" width="1.34" height="0.95"/><rect x="191.08" y="142.96" width="1.35" height="0.95"/><rect x="189.13" y="142.96" width="1.35" height="0.95"/><polygon points="209.5 143.81 212.88 143.81 218.16 135.1 214.78 135.1 209.5 143.81"/><polygon class="cls-5" points="211.01 143.81 214.39 143.81 219.67 135.1 216.29 135.1 211.01 143.81"/><path d="M166,130.18h31a1.86,1.86,0,0,0,1.86-1.71l1.94-24a1.86,1.86,0,0,0-1.85-2H168a1.86,1.86,0,0,0-1.85,1.71l-1.95,24A1.86,1.86,0,0,0,166,130.18Z" transform="translate(34.02 7.03)"/><path class="cls-9" d="M167.15,130.18h32.26a1.22,1.22,0,0,0,1.21-1.11l2-25.26a1.21,1.21,0,0,0-1.21-1.31H169.2a1.22,1.22,0,0,0-1.21,1.12l-2.05,25.25A1.21,1.21,0,0,0,167.15,130.18Z" transform="translate(34.02 7.03)"/><path d="M199.41,130.4H167.15a1.42,1.42,0,0,1-1.43-1.55l2.05-25.25a1.44,1.44,0,0,1,1.43-1.32h32.26a1.46,1.46,0,0,1,1.06.46,1.42,1.42,0,0,1,.37,1.09l-2,25.25A1.44,1.44,0,0,1,199.41,130.4ZM169.2,102.73a1,1,0,0,0-1,.91l-2.05,25.25a1,1,0,0,0,.25.75,1,1,0,0,0,.73.32h32.26a1,1,0,0,0,1-.91l2.06-25.25a1,1,0,0,0-1-1.07Z" transform="translate(34.02 7.03)"/><path d="M165.7,138.26c2-2,6.51-3.49,11.83-3.49s9.88,1.44,11.83,3.49Z" transform="translate(34.02 7.03)"/><path class="cls-5" d="M167.84,138.26c1.95-2,6.51-3.49,11.83-3.49s9.88,1.44,11.83,3.49Z" transform="translate(34.02 7.03)"/><path d="M170.4,127.17h7.54a.43.43,0,0,0,.43-.38l.23-2.32a.43.43,0,0,0-.43-.47h-7.54a.42.42,0,0,0-.42.39l-.23,2.32A.41.41,0,0,0,170.4,127.17Z" transform="translate(34.02 7.03)"/><rect x="77.69" y="143.69" width="23.23" height="1.6"/><rect x="78.4" y="142.95" width="1.35" height="0.95"/><rect x="80.35" y="142.95" width="1.35" height="0.95"/><rect x="82.3" y="142.95" width="1.35" height="0.95"/><rect x="84.25" y="142.96" width="1.35" height="0.95"/><rect x="86.21" y="142.96" width="1.35" height="0.95"/><rect x="88.16" y="142.96" width="1.34" height="0.95"/><rect x="90.11" y="142.96" width="1.34" height="0.95"/><rect x="92.06" y="142.96" width="1.34" height="0.95"/><rect x="94.01" y="142.96" width="1.34" height="0.95"/><rect x="95.96" y="142.96" width="1.35" height="0.95"/><rect x="97.91" y="142.96" width="1.35" height="0.95"/><polygon points="78.89 143.81 75.5 143.81 70.22 135.1 73.6 135.1 78.89 143.81"/><polygon class="cls-5" points="77.38 143.81 74 143.81 68.72 135.1 72.1 135.1 77.38 143.81"/><path d="M54.34,130.18h-31a1.85,1.85,0,0,1-1.85-1.71l-2-24a1.87,1.87,0,0,1,1.86-2h31a1.87,1.87,0,0,1,1.86,1.71l1.94,24A1.86,1.86,0,0,1,54.34,130.18Z" transform="translate(34.02 7.03)"/><path class="cls-9" d="M53.2,130.18H20.94a1.22,1.22,0,0,1-1.21-1.11l-2.05-25.26a1.21,1.21,0,0,1,1.21-1.31H51.15a1.21,1.21,0,0,1,1.2,1.12l2,25.25A1.21,1.21,0,0,1,53.2,130.18Z" transform="translate(34.02 7.03)"/><path d="M53.2,130.4H20.94a1.44,1.44,0,0,1-1.43-1.32l-2.06-25.25a1.44,1.44,0,0,1,1.44-1.55H51.15a1.44,1.44,0,0,1,1.43,1.32l2.05,25.25a1.45,1.45,0,0,1-.38,1.09A1.4,1.4,0,0,1,53.2,130.4ZM18.89,102.73a1,1,0,0,0-1,1.07L20,129.05a1,1,0,0,0,1,.91H53.2a1,1,0,0,0,1-1.07l-2-25.25a1,1,0,0,0-1-.91Z" transform="translate(34.02 7.03)"/><path d="M54.64,138.26c-1.94-2-6.51-3.49-11.82-3.49s-9.88,1.44-11.83,3.49Z" transform="translate(34.02 7.03)"/><path class="cls-5" d="M52.5,138.26c-1.94-2-6.5-3.49-11.82-3.49s-9.88,1.44-11.83,3.49Z" transform="translate(34.02 7.03)"/><path d="M50,127.17H42.41a.42.42,0,0,1-.43-.38l-.23-2.32a.42.42,0,0,1,.42-.47h7.54a.43.43,0,0,1,.43.39l.23,2.32A.42.42,0,0,1,50,127.17Z" transform="translate(34.02 7.03)"/><path class="cls-9" d="M70.61,87.94c-4-.68-6.66-5.83-6.78-8.55v-.24l-17-.12A2.84,2.84,0,0,1,44,76.18l.12-15.84A2.83,2.83,0,0,1,47,57.54l27.54.1a2.84,2.84,0,0,1,2.8,2.85l-.13,15.84a2.82,2.82,0,0,1-2.82,2.8l-4.24.07-.06.16C68.8,82.48,70.13,86.64,70.61,87.94Z" transform="translate(34.02 7.03)"/><path d="M47,57.29l0,.5,27.51.1a2.59,2.59,0,0,1,2.56,2.6l-.13,15.84a2.58,2.58,0,0,1-2.6,2.55l-4,.07h-.33l-.12.3c-1.17,2.92-.15,6.7.41,8.35-3.86-1-6-6.06-6.15-8.23l0-.48h-.47l-16.77-.12a2.58,2.58,0,0,1-2.55-2.59l.12-15.85A2.57,2.57,0,0,1,47,57.79v-.5Zm0,0a3.07,3.07,0,0,0-3.07,3.05l-.12,15.84a3.08,3.08,0,0,0,3,3.1l16.76.12c.12,2.72,2.9,8.43,7.42,8.84,0,0-2.17-5.17-.72-8.79l4-.07h0a3.06,3.06,0,0,0,3.07-3l.13-15.85a3.09,3.09,0,0,0-3-3.1L47,57.29Z" transform="translate(34.02 7.03)"/><path d="M53.39,67.24a1.93,1.93,0,1,1-1.9-1.95A1.91,1.91,0,0,1,53.39,67.24Z" transform="translate(34.02 7.03)"/><path d="M62.43,67.47a1.93,1.93,0,1,1-1.9-2A1.93,1.93,0,0,1,62.43,67.47Z" transform="translate(34.02 7.03)"/><path d="M71.58,67.48a1.93,1.93,0,1,1-1.91-2A1.92,1.92,0,0,1,71.58,67.48Z" transform="translate(34.02 7.03)"/></g></g></svg>