<svg xmlns="http://www.w3.org/2000/svg" width="1228" height="1162" viewBox="0 0 1228 1162" version="1.1"><path d="M 566 151.759 C 566 271.093, 662.888 373.563, 803.946 403.416 C 814.392 405.626, 814.392 405.626, 780.375 405.187 C 525.189 401.888, 293.105 523.119, 151.115 733.888 C 104.739 802.727, 67.781 885.252, 48.509 963 C 47.077 968.775, 45.672 974.288, 45.386 975.250 C 43.651 981.082, 107.420 977.191, 110.942 971.250 C 184.408 847.345, 327.957 746.974, 528.298 679.430 C 550.095 672.081, 550.095 672.081, 575.298 670.966 C 727.499 664.234, 883.834 713.079, 1005.500 805.378 L 1019.500 815.999 1050.841 816 L 1082.181 816 1077.458 807.250 C 1037.834 733.846, 975.826 660.676, 906.309 605.294 L 896.256 597.286 917.878 594.651 C 968.742 588.451, 1032.202 582.918, 1075 580.952 C 1104.748 579.585, 1099.939 582.472, 1114.786 557.069 L 1127.249 535.745 1122.961 527.622 C 1026.346 344.611, 877.528 219.304, 697.742 169.582 C 642.970 154.434, 566 144.021, 566 151.759 M 150.831 451.023 C 95.697 460.327, 65.289 520.118, 90.069 570.500 C 121.624 634.659, 215.502 631.106, 241.949 564.752 C 266.013 504.377, 214.640 440.255, 150.831 451.023" stroke="none" fill="#f86f3e" fill-rule="evenodd"/><path d="" stroke="none" fill="#fcfcfc" fill-rule="evenodd"/></svg>